<svg xmlns="http://www.w3.org/2000/svg" viewBox="0 0 468.05 427.88"><defs><style>.cls-1{fill:#f5f5f5}.cls-2{fill:#e0e0e0}.cls-3{fill:#ebebeb}.cls-4{fill:#fafafa}.cls-5{fill:#ffbe9d}.cls-6{fill:#eb996e}.cls-7{fill:#263238}.cls-8{fill:#455a64}.cls-9{fill:#ff725e}.cls-10{opacity:.3}.cls-11{opacity:.6}.cls-12{fill:#fff}</style></defs><g id="Background_Complete" data-name="Background Complete"><path class="cls-1" d="M408.39 272.24s-4.81 3.63-4.81 8.44v24.6h35.87v-25.7s-.5-6.31-4.72-7.34Z" transform="translate(-19.6 -43.41)"/><path class="cls-2" d="M406.3 303.94a67.58 67.58 0 0 1-.52-7.56 6 6 0 0 1 4.2-5.57c1.89-.52 3.87.17 5.8.49a15.4 15.4 0 0 0 9.28-1.38c2.43-1.21 4.64-3.09 7.33-3.33 1.76-.17 3.8.66 4.29 2.36a5.81 5.81 0 0 1-.05 2.49c-.57 3.8.17 8.51.17 12.15-10 .47-20.45.13-30.5.35" transform="translate(-19.6 -43.41)"/><path class="cls-2" d="m381.71 265.34 5.4-3.47h32.73l5.26 3.47h-43.39"/><path class="cls-1" d="M400.3 228.74v36.62h44.4v43.39h-43.39v10.41h74.86v-90.42a7.8 7.8 0 0 0-7.8-7.79h-60.28a7.79 7.79 0 0 0-7.79 7.79Z" transform="translate(-19.6 -43.41)"/><path class="cls-2" d="M476.17 229.58c0 .17-17 .32-37.94.32s-37.93-.15-37.93-.32 17-.32 37.93-.32 37.94.14 37.94.32Z" transform="translate(-19.6 -43.41)"/><path class="cls-2" d="M455.11 319.16c-.18 0-.32-21.93-.32-49s.14-49 .32-49 .32 21.93.32 49-.14 49-.32 49ZM396.28 293.41l-.45-11.09a15 15 0 0 1 2.41-9.05c1.43-2.09 3.54-4 6.54-4h30v2.93h-29.4s-5.29.55-6 7.8a72.29 72.29 0 0 0 0 13.37Z" transform="translate(-19.6 -43.41)"/><path class="cls-2" d="M395.38 405.12h11.94v21.53h-11.94zM448.15 405.12h11.94v21.53h-11.94zM369.14 276.05h98.91v129.07h-98.91z"/><path class="cls-1" d="M351.02 276.05h96.34v129.07h-96.34zM359.54 405.12h11.94v21.53h-11.94zM428.2 405.12h11.94v21.53H428.2z"/><path class="cls-2" d="M459.3 433.79v-8.55c0-5.49 0-13.44-.07-23.31l.13.13-82.67.06.2-.19v31.86l-.19-.19 59.23.09 17.22.05h6.23H453.24l-17.18.06-59.36.08h-.19v-32.15h.2l82.67.06h.14v.14c0 9.91-.06 17.88-.07 23.39v7.92c0 .37-.15.55-.15.55Z" transform="translate(-19.6 -43.41)"/><path class="cls-2" d="M420.46 417.86s0-.23-.15-.6a2.5 2.5 0 0 0-.92-1.28 2.38 2.38 0 0 0-2.22-.3 2.33 2.33 0 1 0 2.22 4.05 2.5 2.5 0 0 0 .92-1.28c.11-.37.11-.6.15-.59a1.06 1.06 0 0 1 0 .62 2.44 2.44 0 0 1-.89 1.47 2.65 2.65 0 0 1-2.51.42 2.67 2.67 0 0 1 0-5 2.65 2.65 0 0 1 2.51.42 2.47 2.47 0 0 1 .89 1.47 1.12 1.12 0 0 1 0 .6ZM459.3 395.63v-8.54c0-5.5 0-13.44-.07-23.32l.13.14-82.67.06.2-.2v31.86l-.19-.19 59.23.09 17.22.05h4.67-4.58l-17.18.05-59.36.09h-.19v-32.14h.2l82.67.06h.14v.13c0 9.91-.06 17.89-.07 23.4v7.92c0 .38-.15.54-.15.54Z" transform="translate(-19.6 -43.41)"/><path class="cls-2" d="M420.46 379.7s0-.22-.15-.59a2.46 2.46 0 0 0-.92-1.28 2.38 2.38 0 0 0-2.22-.31 2.33 2.33 0 0 0 0 4.36 2.38 2.38 0 0 0 2.22-.3 2.52 2.52 0 0 0 .92-1.29c.11-.37.11-.59.15-.59a1.1 1.1 0 0 1 0 .63 2.47 2.47 0 0 1-.89 1.47 2.65 2.65 0 0 1-2.51.42 2.67 2.67 0 0 1 0-5 2.62 2.62 0 0 1 2.51.42 2.45 2.45 0 0 1 .89 1.46 1.1 1.1 0 0 1 0 .6ZM459.3 358v-8.54c0-5.5 0-13.44-.07-23.32l.13.14-82.67.06.2-.2V358l-.19-.19 59.23.09 17.22.05h5.84-22.93l-59.36.09h-.19v-32.1h.2l82.67.06h.14v.13c0 9.91-.06 17.89-.07 23.4v7.92c0 .38-.15.55-.15.55Z" transform="translate(-19.6 -43.41)"/><path class="cls-2" d="M420.46 342.06s0-.22-.15-.59a2.46 2.46 0 0 0-.92-1.28 2.35 2.35 0 0 0-2.22-.3 2.32 2.32 0 0 0 0 4.35 2.38 2.38 0 0 0 2.22-.3 2.48 2.48 0 0 0 .92-1.29c.11-.37.11-.59.15-.59a1.12 1.12 0 0 1 0 .63 2.47 2.47 0 0 1-.89 1.47 2.65 2.65 0 0 1-2.51.42 2.67 2.67 0 0 1 0-5 2.62 2.62 0 0 1 2.51.42 2.45 2.45 0 0 1 .89 1.46 1.1 1.1 0 0 1 0 .6ZM468.49 319.15c0 .2-18 .36-40.26.36s-40.25-.16-40.25-.36 18-.35 40.25-.35 40.26.2 40.26.35Z" transform="translate(-19.6 -43.41)"/><path class="cls-3" d="M13.77 368.9h75.18v5.83H13.77z"/><path class="cls-2" d="M68.31 368.9h20.64v5.83H68.31z"/><path class="cls-1" d="M23.83 418.15v26.26h-4.12v2.86h4.12v17.58h77v-16h-5.7v-3.49h5.7v-5.22h2.53v-2.38h-3v-19.61Z" transform="translate(-19.6 -43.41)"/><path class="cls-2" d="M60.76 374.81v46.33h20.45v-15.99H75.5v-3.2h5.71v-5.22h2.53v-2.67h-3.01v-19.32l-19.97.07z"/><path class="cls-2" d="M81.82 446.89c0 .16-13.93.29-31.1.29s-31.12-.13-31.12-.29 13.93-.29 31.12-.29 31.1.13 31.1.29ZM81.82 444.22c0 .16-13.93.29-31.1.29s-31.12-.13-31.12-.29 13.93-.29 31.12-.29 31.1.13 31.1.29ZM85.82 437c0 .16-13.93.29-31.11.29S23.6 437.2 23.6 437s13.93-.29 31.11-.29 31.11.17 31.11.29ZM86.2 456.61c0 .16-13.93.29-31.1.29s-31.1-.13-31.1-.29 13.93-.29 31.12-.29 31.08.13 31.08.29Z" transform="translate(-19.6 -43.41)"/><path class="cls-1" d="M31.45 365.61v26.27h-4.12v2.85h4.12v17.58h77v-16h-5.7v-3.49h5.7v-5.22H111v-2.37h-3v-19.62Z" transform="translate(-19.6 -43.41)"/><path class="cls-2" d="M68.38 322.28v46.33h20.44v-16h-5.7v-3.19l5.7.11v-5.23l2.58.01-.04-2.7-3.02-.08V322.2l-19.96.08z"/><path class="cls-2" d="M89.44 394.35c0 .16-13.93.3-31.11.3s-31.11-.14-31.11-.3 13.93-.29 31.11-.29 31.11.13 31.11.29ZM89.44 391.69c0 .16-13.93.29-31.11.29s-31.11-.13-31.11-.29 13.93-.3 31.11-.3 31.11.14 31.11.3ZM93.43 384.5c0 .17-13.92.3-31.1.3s-31.12-.13-31.12-.3 13.93-.29 31.12-.29 31.1.13 31.1.29ZM93.82 404.07c0 .16-13.93.29-31.11.29s-31.11-.13-31.11-.29 13.93-.29 31.11-.29 31.11.13 31.11.29Z" transform="translate(-19.6 -43.41)"/><path class="cls-3" d="M8.73 421.17h75.18V427H8.73z"/><path class="cls-2" d="M63.27 421.17h20.64V427H63.27z"/><path class="cls-1" d="M53.19 245.79v24h-3.77v2.61h3.77v16.08h70.42v-14.6h-5.22v-3.19h5.22v-4.78h2.32v-2.18h-2.76v-17.94Z" transform="translate(-19.6 -43.41)"/><path class="cls-2" d="M85.3 202.45v42.39H104V230.2h-5.21v-2.92l5.21.1v-4.78h2.37l-.05-2.47-2.75-.07v-17.68l-18.27.07z"/><path class="cls-2" d="M106.24 272.08c0 .15-12.74.27-28.46.27s-28.46-.12-28.46-.27 12.74-.26 28.46-.26 28.46.12 28.46.26ZM106.24 269.64c0 .15-12.74.27-28.46.27s-28.46-.12-28.46-.27 12.74-.26 28.46-.26 28.46.11 28.46.26ZM109.9 263.07c0 .15-12.75.27-28.46.27S53 263.22 53 263.07s12.74-.26 28.47-.26 28.43.11 28.43.26ZM110.25 281c0 .15-12.75.27-28.46.27s-28.46-.12-28.46-.27 12.74-.26 28.46-.26 28.46.09 28.46.26Z" transform="translate(-19.6 -43.41)"/><path class="cls-4" d="M148.26 46.56H250.3v91.29H148.26z"/><path class="cls-2" d="M269.9 181.27v-6.59c0-4.28 0-10.55-.06-18.53 0-16-.07-38.74-.12-66.18l.23.23h-102l.27-.28v91.3l-.24-.24 73.81.12 20.81.06h7.42H262.7l-20.76.07-74 .12h-.24V89.7h102.52v.3c-.05 27.5-.09 50.34-.12 66.33 0 7.95 0 14.2-.06 18.48v4.84c0 1.11-.14 1.62-.14 1.62Z" transform="translate(-19.6 -43.41)"/><path class="cls-2" d="M207 106.19c0 .16-5.37.28-12 .28s-12-.12-12-.28 5.37-.27 12-.27 12 .08 12 .27ZM250.23 113.05c0 .15-14.76.27-33 .27s-33-.12-33-.27 14.76-.27 33-.27 33 .12 33 .27Z" transform="translate(-19.6 -43.41)"/><path class="cls-2" d="M163.57 81.25h4.3v4.3h-4.3zM174.15 81.25h4.3v4.3h-4.3zM184.93 81.06h4.3v4.3h-4.3zM195.31 81.25h4.3v4.3h-4.3zM205.9 81.25h4.3v4.3h-4.3zM216.48 81.25h4.3v4.3h-4.3z"/><path class="cls-3" d="M227.06 81.25h4.3v4.3h-4.3zM163.57 90.39h4.3v4.3h-4.3z"/><path class="cls-2" d="M174.15 90.39h4.3v4.3h-4.3z"/><path class="cls-3" d="M184.73 90.39h4.3v4.3h-4.3z"/><path class="cls-2" d="M195.31 90.39h4.3v4.3h-4.3zM205.9 90.39h4.3v4.3h-4.3zM216.67 90.2h4.3v4.3h-4.3zM227.06 90.39h4.3v4.3h-4.3zM163.57 99.53h4.3v4.3h-4.3zM174.35 99.34h4.3v4.3h-4.3zM184.73 99.53h4.3v4.3h-4.3z"/><path class="cls-3" d="M195.31 99.53h4.3v4.3h-4.3z"/><path class="cls-2" d="M205.9 99.53h4.3v4.3h-4.3zM216.48 99.53h4.3v4.3h-4.3zM227.06 99.53h4.3v4.3h-4.3zM163.57 108.67h4.3v4.3h-4.3zM174.15 108.67h4.3v4.3h-4.3zM184.73 108.67h4.3v4.3h-4.3zM195.51 108.48h4.3v4.3h-4.3zM205.9 108.67h4.3v4.3h-4.3z"/><path class="cls-3" d="M216.48 108.67h4.3v4.3h-4.3z"/><path class="cls-2" d="M227.06 108.67h4.3v4.3h-4.3zM163.57 117.81h4.3v4.3h-4.3z"/><path class="cls-3" d="M174.15 117.81h4.3v4.3h-4.3z"/><path class="cls-2" d="M184.73 117.81h4.3v4.3h-4.3zM195.31 117.81h4.3v4.3h-4.3zM205.9 117.81h4.3v4.3h-4.3zM216.67 117.62h4.3v4.3h-4.3zM227.06 117.81h4.3v4.3h-4.3z"/><path class="cls-3" transform="rotate(180 405.765 72.92)" d="M406.59 79.15h17.97v30.96h-17.97z"/><path class="cls-3" transform="rotate(180 353.76 69.57)" d="M356.47 71.95h14.19v38.65h-14.19z"/><path class="cls-4" d="M356.3 74.74a119.41 119.41 0 0 1 14.49 0 60.11 60.11 0 0 1-7.24.22 60.35 60.35 0 0 1-7.25-.22ZM357.09 76.57a111.83 111.83 0 0 1 13.7 0 106.75 106.75 0 0 1-13.7 0ZM363.15 103c-.11 0-.21-5.12-.21-11.44s.1-11.43.21-11.43.22 5.12.22 11.43-.1 11.44-.22 11.44ZM356.47 106.52a109.73 109.73 0 0 1 13.89 0 114.95 114.95 0 0 1-13.89 0ZM356.47 108.17a120.81 120.81 0 0 1 14.24 0 115.32 115.32 0 0 1-14.24 0Z" transform="translate(-19.6 -43.41)"/><path class="cls-2" transform="rotate(180 366.54 67.48)" d="M370.64 67.77h11.4v42.83h-11.4z"/><path class="cls-4" d="M370.57 87.44a10.81 10.81 0 0 1 1.77 1.22l4.11 3.12 4.1 3.13a10.83 10.83 0 0 1 1.65 1.37 10.24 10.24 0 0 1-1.82-1.12c-1.1-.75-2.58-1.81-4.19-3s-3-2.37-4-3.22a11 11 0 0 1-1.62-1.5ZM370.52 80.73a64.94 64.94 0 0 1 5.84 4.72 66.72 66.72 0 0 1 5.55 5 64.94 64.94 0 0 1-5.84-4.72 66.72 66.72 0 0 1-5.55-5Z" transform="translate(-19.6 -43.41)"/><path class="cls-3" transform="rotate(180 314.04 68.525)" d="M321.11 69.83h5.45v40.8h-5.45z"/><path class="cls-4" d="M321.34 75.39a6.67 6.67 0 0 0 2.55.25 6.74 6.74 0 0 0 2.56-.25 6.4 6.4 0 0 0-2.56-.26 6.33 6.33 0 0 0-2.55.26Z" transform="translate(-19.6 -43.41)"/><ellipse class="cls-4" cx="304.18" cy="31.09" rx="2.55" ry=".26"/><path class="cls-4" d="M321.34 107.48a6.67 6.67 0 0 0 2.55.25 6.74 6.74 0 0 0 2.56-.25 6.4 6.4 0 0 0-2.56-.26 6.33 6.33 0 0 0-2.55.26ZM321.23 106.59a6.67 6.67 0 0 0 2.55.25 6.74 6.74 0 0 0 2.56-.25 6.62 6.62 0 0 0-2.56-.26 6.55 6.55 0 0 0-2.55.26ZM324 101.26a102.84 102.84 0 0 0 .26-10.44 102.84 102.84 0 0 0-.26-10.44c-.14 0-.25 4.68-.25 10.44s.11 10.44.25 10.44Z" transform="translate(-19.6 -43.41)"/><path class="cls-2" transform="rotate(180 341.19 68.265)" d="M345.54 69.57h10.9v40.8h-10.9z"/><path class="cls-4" d="M353.38 110.89s.05-.07.12-.22.19-.38.32-.68a12.53 12.53 0 0 0 .79-2.76 7.24 7.24 0 0 0-.64-4.49 6 6 0 0 0-1.97-2.14 4.54 4.54 0 0 0-3.14-.74 3.38 3.38 0 0 0-1.63.75 2.16 2.16 0 0 0-.78 1.72 2.46 2.46 0 0 0 .93 1.73 3.42 3.42 0 0 0 1.86.79 5 5 0 0 0 3.87-1.4 6.23 6.23 0 0 0 1.91-3.93 10.45 10.45 0 0 0-.52-4.52 8.44 8.44 0 0 0-2.67-4 4.41 4.41 0 0 0-2.36-.92 3 3 0 0 0-2.45.87 2 2 0 0 0-.56 1.27 2.41 2.41 0 0 0 .38 1.34 3.55 3.55 0 0 0 2.2 1.5 5.13 5.13 0 0 0 4.8-1.61 8 8 0 0 0 1.87-4.59 11.41 11.41 0 0 0-.47-4.77 6.59 6.59 0 0 0-2.81-3.62 4.8 4.8 0 0 0-4.33-.47 2.26 2.26 0 0 0-1.41 1.66 2.63 2.63 0 0 0 .49 2.06 3.42 3.42 0 0 0 3.68 1 6.34 6.34 0 0 0 2.89-2.06 9.25 9.25 0 0 0 2.18-5.59 9.06 9.06 0 0 0-1-4.44 8.89 8.89 0 0 0-1.71-2.31 7.13 7.13 0 0 0-.57-.49 1.11 1.11 0 0 0-.21-.14 10.36 10.36 0 0 1 2.31 3 8.81 8.81 0 0 1 .9 4.33 9 9 0 0 1-2.16 5.38 6 6 0 0 1-2.74 1.91 3 3 0 0 1-3.22-.85 2.22 2.22 0 0 1-.4-1.72 1.82 1.82 0 0 1 1.16-1.33 4.36 4.36 0 0 1 3.9.45 6.06 6.06 0 0 1 2.6 3.37 10.84 10.84 0 0 1 .43 4.55 7.53 7.53 0 0 1-1.75 4.31 4.63 4.63 0 0 1-4.31 1.45 3.08 3.08 0 0 1-1.88-1.27 1.57 1.57 0 0 1 .13-2 2.53 2.53 0 0 1 2-.72 3.88 3.88 0 0 1 2.08.83 7.9 7.9 0 0 1 2.51 3.75 9.88 9.88 0 0 1 .55 4.34 5.74 5.74 0 0 1-1.75 3.65 4.55 4.55 0 0 1-3.51 1.31 2.59 2.59 0 0 1-2.44-2.12 1.73 1.73 0 0 1 .64-1.41 2.88 2.88 0 0 1 1.43-.68 4.14 4.14 0 0 1 2.9.66 5.76 5.76 0 0 1 1.86 2 7.12 7.12 0 0 1 .69 4.33 13.32 13.32 0 0 1-.69 2.75c-.18.61-.32.92-.3.93Z" transform="translate(-19.6 -43.41)"/><path class="cls-4" transform="rotate(180 326.135 70.105)" d="M326.48 73.23h18.92v37.16h-18.92z"/><path class="cls-2" d="M327.13 79.4a81.8 81.8 0 0 0 9.15.26 81.91 81.91 0 0 0 9.16-.26 83.53 83.53 0 0 0-9.16-.25 83.41 83.41 0 0 0-9.15.25ZM326.89 82.22a79.84 79.84 0 0 0 9 .26 79.84 79.84 0 0 0 9-.26 79.84 79.84 0 0 0-9-.26 79.84 79.84 0 0 0-9 .26ZM326.28 106.19a90.34 90.34 0 0 0 9.52.25 90.19 90.19 0 0 0 9.52-.25 85.44 85.44 0 0 0-9.52-.26 85.58 85.58 0 0 0-9.52.26ZM326.54 102.88a85.55 85.55 0 0 0 9.27.25 85.55 85.55 0 0 0 9.27-.25 81 81 0 0 0-9.27-.26 81 81 0 0 0-9.27.26Z" transform="translate(-19.6 -43.41)"/><path class="cls-3" transform="rotate(180 377.68 68)" d="M382.03 69.3h10.9v40.8h-10.9z"/><path class="cls-4" d="M389.87 110.63s.05-.07.13-.22.18-.38.31-.68a12.65 12.65 0 0 0 .79-2.77 7.25 7.25 0 0 0-.64-4.49 6.07 6.07 0 0 0-1.93-2.13 4.54 4.54 0 0 0-3.14-.74 3.38 3.38 0 0 0-1.63.75 2.16 2.16 0 0 0-.78 1.72 2.49 2.49 0 0 0 .94 1.73 3.36 3.36 0 0 0 1.85.79 5 5 0 0 0 3.87-1.41 6.24 6.24 0 0 0 1.92-3.92 10.61 10.61 0 0 0-.57-4.55 8.44 8.44 0 0 0-2.67-4 4.41 4.41 0 0 0-2.36-.92 3.07 3.07 0 0 0-2.45.86A2 2 0 0 0 383 92a2.41 2.41 0 0 0 .38 1.34 3.55 3.55 0 0 0 2.2 1.5 5.16 5.16 0 0 0 4.8-1.61 8 8 0 0 0 1.87-4.6 11.22 11.22 0 0 0-.47-4.76 6.55 6.55 0 0 0-2.81-3.62 4.84 4.84 0 0 0-4.33-.46 2.26 2.26 0 0 0-1.41 1.67 2.6 2.6 0 0 0 .49 2 3.41 3.41 0 0 0 3.68 1 6.41 6.41 0 0 0 2.89-2.06 9.26 9.26 0 0 0 2.18-5.6 9 9 0 0 0-1-4.43A8.89 8.89 0 0 0 389.7 70a5.5 5.5 0 0 0-.57-.49.82.82 0 0 0-.21-.14 10.17 10.17 0 0 1 2.31 3 8.81 8.81 0 0 1 .9 4.33 9 9 0 0 1-2.13 5.44 6 6 0 0 1-2.74 1.92 3 3 0 0 1-3.22-.85 2.22 2.22 0 0 1-.4-1.72 1.82 1.82 0 0 1 1.16-1.33 4.36 4.36 0 0 1 3.9.44 6.12 6.12 0 0 1 2.6 3.38 10.84 10.84 0 0 1 .43 4.55 7.5 7.5 0 0 1-1.75 4.3 4.63 4.63 0 0 1-4.3 1.46 3 3 0 0 1-1.91-1.29 1.55 1.55 0 0 1 .12-2 2.55 2.55 0 0 1 2-.71 3.87 3.87 0 0 1 2.08.82 8 8 0 0 1 2.52 3.74 10 10 0 0 1 .56 4.34 5.75 5.75 0 0 1-1.76 3.64 4.55 4.55 0 0 1-3.51 1.32 2.6 2.6 0 0 1-2.44-2.12 1.76 1.76 0 0 1 .64-1.42 3 3 0 0 1 1.43-.67 4.14 4.14 0 0 1 2.9.66 5.76 5.76 0 0 1 1.86 2 7.12 7.12 0 0 1 .69 4.33 12.71 12.71 0 0 1-.69 2.75c-.17.63-.32.94-.3.95Z" transform="translate(-19.6 -43.41)"/><path class="cls-2" transform="rotate(180 303.735 66.97)" d="M305.96 67.24h15.15v42.86h-15.15z"/><path class="cls-2" transform="rotate(180 390.215 69.325)" d="M392.93 71.95h14.17v38.16h-14.17z"/><path class="cls-4" d="M407.46 91a11.52 11.52 0 0 0 2.25 1.6 7.85 7.85 0 0 0 2.85.79 7.28 7.28 0 0 0 3.54-.61c1.2-.51 2.29-1.17 3.4-1.55a5.38 5.38 0 0 1 3.09-.29 3.33 3.33 0 0 1 1.79 1.06 1.33 1.33 0 0 1 .35.68s-.14-.23-.48-.57a3.36 3.36 0 0 0-1.73-.9 5.21 5.21 0 0 0-2.88.36c-1.06.39-2.13 1-3.37 1.57a7.62 7.62 0 0 1-3.74.62 7.71 7.71 0 0 1-3-.92 6.51 6.51 0 0 1-1.65-1.26 2 2 0 0 1-.42-.58ZM407.14 94.76a12.51 12.51 0 0 0 2.25 1.6 7.85 7.85 0 0 0 2.85.79 7.41 7.41 0 0 0 3.54-.62c1.2-.51 2.29-1.16 3.4-1.55a5.37 5.37 0 0 1 3.09-.28 3.33 3.33 0 0 1 1.79 1.09c.32.39.37.67.35.68s-.14-.24-.47-.57a3.3 3.3 0 0 0-1.74-.9 5.13 5.13 0 0 0-2.88.36c-1.06.38-2.13 1-3.37 1.57a7.48 7.48 0 0 1-3.74.61 7.59 7.59 0 0 1-3-.91 6.5 6.5 0 0 1-1.65-1.27 2 2 0 0 1-.42-.6ZM407.38 82.53c0-.12 3.9-.21 8.71-.21s8.71.09 8.71.21a86.94 86.94 0 0 1-8.71.22 86.94 86.94 0 0 1-8.71-.22ZM401 78.1a2 2 0 0 0-1.24-.11 1.51 1.51 0 0 0-1 .8 1.24 1.24 0 0 0 .36 1.38 1.26 1.26 0 0 0 1.39.31 1.48 1.48 0 0 0 .76-1 2.07 2.07 0 0 0-.15-1.23s.14.06.27.27a1.57 1.57 0 0 1 .18 1 1.77 1.77 0 0 1-.88 1.29 1.63 1.63 0 0 1-1.87-.36 1.65 1.65 0 0 1-.43-1.85 1.73 1.73 0 0 1 1.25-.93 1.51 1.51 0 0 1 1 .14c.26.19.36.27.36.29ZM400 106.29c-.12 0-.22-5.35-.22-12s.1-11.94.22-11.94.22 5.34.22 11.94-.06 12-.22 12Z" transform="translate(-19.6 -43.41)"/><path class="cls-3" d="M273.1 66.48h146.65v8.37H273.1z"/><path class="cls-2" d="M406.95 66.48h12.8v8.37h-12.8z"/></g><g id="Character"><path class="cls-5" d="M391.43 245.94c7-8.35 11.05-10.65 16.14-16.31 4.28-4.78 8.64-9.68 11.16-15.59s2.89-13.12-.66-18.47a165 165 0 0 0-19.62-2.75c-8.37-.46-12.26-.39-12.26-.39l-4.64 14 8.38 3.42-17.16 15.53-13.55 15.76 6.78 19.55 9.12.84Z" transform="translate(-19.6 -43.41)"/><path class="cls-6" d="M403.42 196.93a20.58 20.58 0 0 1-2.22 2.31l-5.5 5.4c-2.16 2.11-4.14 4-5.62 5.31a17.83 17.83 0 0 1-2.47 2 22.33 22.33 0 0 1 2.22-2.3l5.5-5.41c2.16-2.11 4.14-4 5.62-5.3a18.5 18.5 0 0 1 2.47-2.01ZM415.83 200.63c-.07.06-.47-.38-1.27-.85a5.84 5.84 0 0 0-3.42-.81 6 6 0 0 0-3.24 1.39c-.7.6-1 1.11-1.09 1.07s.15-.62.84-1.34a5.45 5.45 0 0 1 7.12-.62c.8.58 1.1 1.13 1.06 1.16Z" transform="translate(-19.6 -43.41)"/><path class="cls-7" d="M385.31 199a5.71 5.71 0 0 0 3.49-7.46 22.57 22.57 0 0 0-2.49-3.56 12.46 12.46 0 0 1-1.18-2.19l-1.38-4.24c-.93-3.56-1.7-7.16-4.47-9.41-2.51-2-6-2.34-8.88-3.79-2.11-1.05-3.88-2.69-5.95-3.82s-4.72-1.68-6.73-.44c-1.17.73-2 2-3.14 2.69-2.45 1.48-5.95.38-8.19 2.15-1.82 1.45-2 4.14-3.3 6.06-1.42 2.08-2.29 4-4.55 5.16a6.4 6.4 0 0 0-3.6 5.82c0 2.22-.32 3.23-.38 5.45a13.67 13.67 0 0 1-1.54 4.74c-.64 1.48-1.85 7.26-.53 8.2l15.08 6.79c4.77 4.68 9.7 9.48 15.88 12l1.19 1.6c-1.42.18 15.09-1.47 17.85-11.4a9.83 9.83 0 0 1 1.72-3.84 17.84 17.84 0 0 0 2.61-3.41 6.12 6.12 0 0 0-1.51-7.1Z" transform="translate(-19.6 -43.41)"/><path class="cls-7" d="M369.38 215.73a81.92 81.92 0 0 0 8.62-11.47 29 29 0 0 0 4.34-13.55c0-.72-.23-5.77-.92-6-.5-.15-.89 4.3-1.31 4.61a24.72 24.72 0 0 0-8 12.24 65.41 65.41 0 0 0-2.71 14.15" transform="translate(-19.6 -43.41)"/><path class="cls-5" d="M339.56 246.53c6.93 2.68 20.9-9.13 20.9-9.13l16.31-38.4c4.93-11 2.66-23-8.43-27.59l-1-.36a21.47 21.47 0 0 0-26.74 11.57c-4.22 9.52-8.76 20.1-10.54 25.38-3.67 10.93 6.62 16.44 6.62 16.44s-.95 2.49-2.21 5.64c-2.81 7.06 2.29 15.56 5.14 16.45Z" transform="translate(-19.6 -43.41)"/><path class="cls-6" d="M336.63 224.44a27.85 27.85 0 0 0 15.64.76s-6.22 6.71-16.74 1.93Z" transform="translate(-19.6 -43.41)"/><path class="cls-7" d="M339.23 192.27c.13.27 1.61-.19 3.28.4s2.6 1.85 2.86 1.71.05-.49-.35-1.07a4.54 4.54 0 0 0-2.2-1.62 4.36 4.36 0 0 0-2.69-.07c-.66.22-.96.52-.9.65ZM355.67 197.31c.12.27 1.6-.19 3.27.4s2.61 1.86 2.86 1.72.05-.5-.35-1.07a4.5 4.5 0 0 0-2.2-1.63 4.35 4.35 0 0 0-2.69-.06c-.65.21-.96.52-.89.64ZM346.94 205.11a12 12 0 0 0-2.54-1.44c-.41-.19-.79-.42-.76-.73a2.34 2.34 0 0 1 .73-1.17l2.4-2.81c3.38-4 6-7.38 5.81-7.51s-3 3-6.4 7l-2.35 2.84a2.57 2.57 0 0 0-.81 1.6 1.12 1.12 0 0 0 .48.87 3.29 3.29 0 0 0 .69.36 11.07 11.07 0 0 0 2.75.99ZM351.46 208c-.27-.11-.9 1.71-2.91 2.45s-3.87-.13-4 .12.31.5 1.12.81a4.81 4.81 0 0 0 3.28 0 4.16 4.16 0 0 0 2.32-2.1c.36-.73.32-1.28.19-1.28ZM359.91 187.61c0 .51 1.75.88 3.63 1.8s3.28 2 3.68 1.7c.19-.16.06-.68-.43-1.35a6.69 6.69 0 0 0-2.47-2 6.79 6.79 0 0 0-3.1-.69c-.82.06-1.31.29-1.31.54ZM343.93 182.63c.16.49 1.45.49 2.84 1s2.47 1.15 2.88.85c.19-.15.14-.6-.25-1.14a4.13 4.13 0 0 0-2.09-1.42 4.08 4.08 0 0 0-2.52 0c-.63.15-.93.48-.86.71Z" transform="translate(-19.6 -43.41)"/><path class="cls-5" d="M373.06 206.75c.22 0 8.26.41 5.42 7.77s-9.65 3-9.58 2.77 4.16-10.54 4.16-10.54Z" transform="translate(-19.6 -43.41)"/><path class="cls-6" d="M372.23 215.37s.09.14.27.32a1.34 1.34 0 0 0 .95.39c.89 0 2-1 2.57-2.28a4.51 4.51 0 0 0 .34-2 1.58 1.58 0 0 0-.58-1.36.7.7 0 0 0-.89.06c-.18.17-.19.33-.23.33s-.11-.18.06-.47a.87.87 0 0 1 .47-.34 1 1 0 0 1 .78.08 2 2 0 0 1 .9 1.66 4.64 4.64 0 0 1-.35 2.22c-.62 1.47-1.91 2.56-3.09 2.46a1.48 1.48 0 0 1-1.1-.65c-.16-.24-.13-.42-.1-.42Z" transform="translate(-19.6 -43.41)"/><path class="cls-7" d="M350.11 172.35c-.93-1.12 4.15-3.56 7.59-3.72 5.2-.26 12.42 1.18 16 3.94 4.34 3.33 7.44 7.38 8.14 12.8a31.12 31.12 0 0 1-2.6 16 9.37 9.37 0 0 1-2.81 4.07c-1.67 1.22-4 1.46-4.84 3.73a3.31 3.31 0 0 1-1.65 1.94c-1.9.89-3-1.1-3.24-2.74-.47-3.51.71-7 1.87-10.36a23.2 23.2 0 0 1 3.23-6.79c.84-1.08 1.88-2 2.66-3.13a4.76 4.76 0 0 0 .93-3.87 5.49 5.49 0 0 0-.36-.84 8.21 8.21 0 0 0-7-4.45c-4.71-.17-12.63-.79-13.91-2.92-1.85-3.06-2-4.63-2-4.63Z" transform="translate(-19.6 -43.41)"/><path class="cls-7" d="M373.74 171.43a17.26 17.26 0 0 0-12.66-4.23 9 9 0 0 0-6.35 3.11c-1.47 1.93-1.6 5 .15 6.65l.11.15c2.71 2.29 4.91 2.68 8.46 2.83 3 .14 6-.56 8.94-.41a16 16 0 0 1 8.83 3.2 26.11 26.11 0 0 0-7.48-11.3Z" transform="translate(-19.6 -43.41)"/><path class="cls-8" d="M384.31 187.23a6.57 6.57 0 0 1-1.41 1.85 16.18 16.18 0 0 1-4.56 3.3 16.4 16.4 0 0 1-5.4 1.57 7.09 7.09 0 0 1-2.33 0 20.38 20.38 0 0 0 13.7-6.7ZM386.79 189.63a2.41 2.41 0 0 1-.31.84 13.69 13.69 0 0 1-1.24 2.11 16.53 16.53 0 0 1-6.09 5.24 16.79 16.79 0 0 1-7.86 1.74 14.84 14.84 0 0 1-2.43-.28 2.85 2.85 0 0 1-.86-.28c0-.1 1.26.18 3.3.15a17.55 17.55 0 0 0 7.61-1.83 17.78 17.78 0 0 0 6-5c1.27-1.57 1.8-2.74 1.88-2.69Z" transform="translate(-19.6 -43.41)"/><path class="cls-5" d="m289.71 271-35.4-37-7.61 12 9.39 17.94s10.23 16.76 15.5 22.66 5.65 4.63 5.65 4.63Z" transform="translate(-19.6 -43.41)"/><path class="cls-5" d="M241.23 223.3c-.12-.08-6.32-1-8.79-1.35a2.59 2.59 0 0 0-1.82.4l-3.72 2.47-3.05 6.47.91.61-.93 5.84a1.85 1.85 0 0 0 3-.22 25.7 25.7 0 0 0 2.7-4.38l4-.07-.18.37-4.13 1.05-1.38 3.51 1.23 3.63 2.78 2.54 1.2-.05 2.26 1.36s2.29-2 .35-4c0 0 1.87 1.84 2.9 1.12l8.4 3.82 6.61-6.38 1.79-5.08s-10.53-10.32-11.17-10.81a11 11 0 0 0-2.96-.85Z" transform="translate(-19.6 -43.41)"/><path class="cls-6" d="M235.7 241.42c-.08 0 0-.51-.07-1.27a3.93 3.93 0 0 0-1.41-2.51l-.15-.12-.15-.11.05-.18a5.33 5.33 0 0 0 .11-2.83 9.5 9.5 0 0 1-.32-1.19c.05 0 .39.33.66 1.09a4.91 4.91 0 0 1 .05 3.09l-.1-.29.17.13a3.83 3.83 0 0 1 1.45 2.89c.01.88-.24 1.32-.29 1.3ZM232.71 244.12a3.74 3.74 0 0 0 .72-1.22 3.71 3.71 0 0 0-.88-3.17c-.22-.31-.46-.6-.69-.89l-.09-.11v-.14a2.43 2.43 0 0 0-.45-2.44c-.44-.5-.86-.65-.83-.72s.48 0 1.07.49a2.7 2.7 0 0 1 .69 2.85l-.05-.25q.36.42.72.9a5.15 5.15 0 0 1 .91 1.87 2.92 2.92 0 0 1-.1 1.73c-.33.98-1.02 1.16-1.02 1.1Z" transform="translate(-19.6 -43.41)"/><path class="cls-6" d="M233.92 237.45c.08.12-.29.49-.82.82s-1 .51-1.09.38.29-.49.82-.82 1.01-.5 1.09-.38ZM235.25 242c-.15 0-.37-.71-1-1.42s-1.25-1.08-1.2-1.22.93.06 1.61.89.73 1.75.59 1.75ZM237.83 242c-.14-.07.68-1.92 1-4.37s0-4.44.14-4.46a8.71 8.71 0 0 1 .38 4.53 8.81 8.81 0 0 1-1.52 4.3ZM229.28 227.69c.07 0 0 .39-.21.95a6.54 6.54 0 0 1-1.18 2.05 3.52 3.52 0 0 1-2.09 1.18c-.64.08-1-.11-1-.17s.38 0 .91-.19a4 4 0 0 0 1.79-1.17 11.1 11.1 0 0 0 1.23-1.85c.27-.49.49-.83.55-.8ZM233.69 232.33c-.09-.11.12-.42.34-.79s.41-.69.56-.66.17.48-.11.94-.71.63-.79.51Z" transform="translate(-19.6 -43.41)"/><path class="cls-8" d="m207.81 221.94.1 15.15c0 5.09 20.5 4.92 20.24-.14 0-.3-.1-15.15-.1-15.15Z" transform="translate(-19.6 -43.41)"/><path class="cls-8" d="M227.55 224.46a11.46 11.46 0 0 1 3.65 0 3.5 3.5 0 0 1 2.31 1.19 4 4 0 0 1 .55 2 7.79 7.79 0 0 1-.39 3.93A5.06 5.06 0 0 1 231 234a8.12 8.12 0 0 1-3.59.52v-2.31a9.68 9.68 0 0 0 2.15-.13 3.32 3.32 0 0 0 1.88-1 4.58 4.58 0 0 0 .79-3.39 2.46 2.46 0 0 0-.38-1.34 2.16 2.16 0 0 0-1.76-.66 6.52 6.52 0 0 0-2.5.5" transform="translate(-19.6 -43.41)"/><path class="cls-7" d="M220.54 191.05a.77.77 0 0 1-.43.18 1.42 1.42 0 0 1-1.2-.57 1.82 1.82 0 0 1-.41-.91 1.33 1.33 0 0 1 .37-1.14 2.24 2.24 0 0 1 2.74-.26 3.08 3.08 0 0 1 1.23 3.13 7.14 7.14 0 0 1-1.81 3.45 12 12 0 0 0-2.3 3.4 3.92 3.92 0 0 0 .76 4c1 1.13 2.34 1.88 3.4 3a3.88 3.88 0 0 1 1.07 2 3.36 3.36 0 0 1-.35 2.15 7.86 7.86 0 0 1-2.75 2.75 12 12 0 0 0-2.53 2.07 7.2 7.2 0 0 0-1.63 4.34 16 16 0 0 0 .11 1.75 1.53 1.53 0 0 1-.15-.44 6 6 0 0 1-.16-1.31 7.11 7.11 0 0 1 1.55-4.57 11.31 11.31 0 0 1 2.56-2.19 7.56 7.56 0 0 0 2.57-2.61 2.83 2.83 0 0 0 .29-1.85 3.38 3.38 0 0 0-.95-1.74c-1-1-2.35-1.76-3.43-3a4.45 4.45 0 0 1-.85-4.49 12.21 12.21 0 0 1 2.43-3.53 6.76 6.76 0 0 0 1.74-3.21 2.68 2.68 0 0 0-1-2.75 1.94 1.94 0 0 0-2.34.14 1.28 1.28 0 0 0 0 1.72 1.31 1.31 0 0 0 1 .59c.32-.04.45-.15.47-.1Z" transform="translate(-19.6 -43.41)"/><path class="cls-5" d="m229 225.79 8-.38 9.08 2.58 11.33 9.67s-8.65 6.42-11.45 3.62-6.07-9-6.07-9l-3.22-1.36s-10.57-.03-7.67-5.13Z" transform="translate(-19.6 -43.41)"/><path class="cls-6" d="M252.2 233.2a2.54 2.54 0 0 1-.45-.32l-1.25-1-4.5-3.74h.07l-9.1-2.53h.03l-8 .39.22-.13-.07.12a2.2 2.2 0 0 0 0 2.51 4.79 4.79 0 0 0 2.31 1.36 19.66 19.66 0 0 0 5.21.76h.05l3.21 1.38h.07v.07a63.92 63.92 0 0 0 4.07 6.76c.54.77 1 1.35 1.32 1.74a4 4 0 0 1 .49.61 3.82 3.82 0 0 1-.58-.52 20.93 20.93 0 0 1-1.43-1.69 54.79 54.79 0 0 1-4.25-6.71l.11.1-3.23-1.34h.09a19.46 19.46 0 0 1-5.37-.75 5.27 5.27 0 0 1-2.56-1.52 2.3 2.3 0 0 1-.5-1.54 3.62 3.62 0 0 1 .48-1.53l.06-.14.07-.12h.23l8-.36h.08l9.06 2.63 4.41 3.87c.47.43.86.79 1.18 1.07s.49.55.47.57Z" transform="translate(-19.6 -43.41)"/><path class="cls-7" d="M228 237.58s-.22.19-.68.46a6.64 6.64 0 0 1-.85.43 10.56 10.56 0 0 1-1.18.49 20.69 20.69 0 0 1-7.26 1.17 22.64 22.64 0 0 1-7.24-1.25 15.66 15.66 0 0 1-2.05-.87c-.47-.24-.72-.39-.7-.43s1.09.42 2.86.95a26.15 26.15 0 0 0 7.14 1.08 23.16 23.16 0 0 0 7.13-1c1.73-.55 2.75-1.11 2.83-1.03ZM228.11 237.45a56.5 56.5 0 0 1-.29-7.82 57.25 57.25 0 0 1 .23-7.83 60.52 60.52 0 0 1 .29 7.82 61.24 61.24 0 0 1-.23 7.83ZM218.07 220.85s-.07-.07-.17-.25a3.56 3.56 0 0 1-.26-.83 5 5 0 0 1 .6-3.11 11.82 11.82 0 0 1 3.17-3.47A10.65 10.65 0 0 0 225 209a3.91 3.91 0 0 0 .1-2.71 5.74 5.74 0 0 0-1.49-2.14c-1.23-1.18-2.55-2.21-3.12-3.5a3.26 3.26 0 0 1 .13-3.14 1.88 1.88 0 0 1 .63-.6c.18-.1.28-.13.29-.11a3.37 3.37 0 0 0-.75.82 3.09 3.09 0 0 0 0 2.87c.57 1.17 1.83 2.11 3.13 3.32a6.15 6.15 0 0 1 1.63 2.31 4.36 4.36 0 0 1-.09 3.06 10.81 10.81 0 0 1-3.73 4.38 11.84 11.84 0 0 0-3.15 3.27 5.06 5.06 0 0 0-.73 2.92c.06.72.27 1.08.22 1.1Z" transform="translate(-19.6 -43.41)"/><path class="cls-9" d="M86.5 231.18 67 216.45s8.43-24.75 5.1-27.82l-29.91 36.75 29.41 24.19Z" transform="translate(-19.6 -43.41)"/><path d="M86.5 231.18 67 216.45s8.43-24.75 5.1-27.82l-29.91 36.75 29.41 24.19Z" transform="translate(-19.6 -43.41)" class="cls-10"/><path class="cls-2" d="M59.36 229.11a1.94 1.94 0 0 1-2.56-.36 1.85 1.85 0 0 1 .33-2.53 2 2 0 0 1 2.71.39 1.93 1.93 0 0 1-.64 2.6" transform="translate(-19.6 -43.41)"/><g class="cls-11"><path class="cls-12" d="m42.19 225.38 3.06 2.32 27.54-36.1s.62-2.22-.68-3Z" transform="translate(-19.6 -43.41)"/></g><path class="cls-7" d="M67.69 216c-.19-.14-1 .69-2.3 1.1s-2.43.27-2.49.49 1.19.8 2.75.28 2.23-1.77 2.04-1.87ZM69.23 210.85c-.14-.18-1.08.35-2.33.34s-2.2-.48-2.34-.3.78 1.11 2.34 1.11 2.5-1 2.33-1.15ZM66.4 204.91c-.17.13.52 1.11 1.88 1.45s2.43-.18 2.34-.38-1-.1-2.14-.4-1.92-.83-2.08-.67ZM71.75 219.86c-.22-.06-.64 1-1.54 1.92s-1.86 1.49-1.78 1.71 1.34 0 2.38-1.16 1.19-2.45.94-2.47Z" transform="translate(-19.6 -43.41)"/><path class="cls-9" d="m96.07 216.9-17.53-17S90 176.36 87 172.9l-34.19 32.8L79 233.32Z" transform="translate(-19.6 -43.41)"/><path class="cls-2" d="M69.39 211.51a1.94 1.94 0 0 1-2.5-.67 1.87 1.87 0 0 1 .64-2.48 2 2 0 0 1 2.64.73 1.94 1.94 0 0 1-1 2.5" transform="translate(-19.6 -43.41)"/><g class="cls-11"><path class="cls-12" d="m52.81 205.7 2.75 2.68 31.77-32.45s.89-2.12-.31-3Z" transform="translate(-19.6 -43.41)"/></g><path class="cls-7" d="M79.26 199.53c-.16-.16-1.07.56-2.41.81s-2.44 0-2.53.19 1.08.94 2.69.6 2.44-1.48 2.25-1.6ZM81.43 194.61c-.12-.2-1.11.21-2.36 0s-2.12-.76-2.28-.59.64 1.21 2.19 1.39 2.6-.64 2.45-.8ZM79.35 188.36c-.19.11.38 1.17 1.69 1.67s2.43.12 2.37-.09-1-.23-2.08-.66-1.8-1.06-1.98-.92ZM82.83 203.85c-.22-.08-.76.88-1.77 1.72s-2 1.25-2 1.48 1.33.14 2.5-.87 1.44-2.28 1.27-2.33ZM88.42 208.27s52.6 41.55 62.47 42.78l11.2 1.82 22.51 9.69 69.49 36.59 21.79 15.22 11.19 21.14.95 12.7s-50.27 6.12-57.67 1.6-70.83-51.89-74.12-55.59-63.1-28.78-86.94-69.84Z" transform="translate(-19.6 -43.41)"/><path class="cls-7" d="M61.32 248.1s38.15 35.43 64.88 45.71a326.6 326.6 0 0 1 48.1 23.43l44.83 24.41 57.59-26-11.37-20.39-93.51-22-94.95-48.13S61.73 240.7 61.32 248.1Z" transform="translate(-19.6 -43.41)"/><path class="cls-7" d="M250.9 326.42a23.85 23.85 0 0 1 22.26-12M256 305.66a13.15 13.15 0 0 1-4.17 14.08" transform="translate(-19.6 -43.41)"/><path class="cls-8" d="M222.93 282.2a5.43 5.43 0 0 1 1.07.46c.67.33 1.63.82 2.81 1.45 2.36 1.25 5.57 3.06 9 5.19s6.55 4.17 8.73 5.71c1.09.76 2 1.39 2.56 1.85a5 5 0 0 1 .9.74 5.06 5.06 0 0 1-1-.58l-2.65-1.71c-2.24-1.45-5.33-3.44-8.8-5.57s-6.64-4-9-5.31l-2.73-1.59a4.39 4.39 0 0 1-.89-.64ZM233 348.65l-.45-.28-1.29-.88-5-3.43-18.16-12.67-26.9-18.85-15.88-11.15-8.39-5.9q-4.23-3-8.76-5.88c-6.05-3.76-12.13-7.19-17.78-10.85s-11-7.31-16.09-10.87-9.85-6.95-14.25-10.25a140.14 140.14 0 0 1-11.76-9.81 108.75 108.75 0 0 1-14.59-16.65c-.76-1.06-1.41-2-2-2.87s-1-1.55-1.38-2.13-.63-1-.83-1.33-.27-.47-.27-.47.12.15.31.44l.87 1.3c.38.58.85 1.28 1.43 2.11s1.23 1.78 2 2.83a112.11 112.11 0 0 0 14.67 16.5 145.4 145.4 0 0 0 11.76 9.73c4.41 3.28 9.23 6.64 14.28 10.21s10.41 7.21 16.08 10.83 11.72 7.07 17.78 10.84c3 1.89 6 3.87 8.79 5.9l8.39 5.9 15.86 11.17 26.83 18.95 18.07 12.81 4.9 3.5 1.26.92a5.07 5.07 0 0 1 .5.33Z" transform="translate(-19.6 -43.41)"/><path class="cls-9" d="M334.2 230.11s-18.31 9.89-21.73 14c-3.18 3.84-38.62 39.3-38.62 39.3s-22.93 6.82-22 8.73c1.63 3.49 8.06 9.76 11.5 13a32 32 0 0 1 4.12 4.65c2.9 4 8.57 11.83 13.25 18.36a43.64 43.64 0 0 1 7.28 20.06l16.17-8.89c8.25-3.33 12.75-12.35 21.82-17L353.23 293l8.3-16.95 2.76-41.71-3.93.28-15.23 2s-13.19-1.44-10.93-6.51Z" transform="translate(-19.6 -43.41)"/><path class="cls-9" d="m348.86 241.08 12.53-5.54a110.51 110.51 0 0 1 10-8.56s-15.63 19.47-1.91 26 24.82-10.68 24.82-10.68a85.83 85.83 0 0 0-4.36 7.57c-1.6 3.32-9.74 13.91-9.74 13.91a19 19 0 0 1-4.92 10.6c-4.68 5.35-9.94 14.21-14.12 16.48s-13.52 6.43-13.52 6.43a118.94 118.94 0 0 1-1.71-30.7c1.37-16.04 2.93-25.51 2.93-25.51Z" transform="translate(-19.6 -43.41)"/><path class="cls-7" d="M368.31 256.77a5.71 5.71 0 0 1-1.06-.77 20.94 20.94 0 0 1-2.58-2.5 10.22 10.22 0 0 1-2.34-4.79 16.64 16.64 0 0 1 .39-6.53 33.62 33.62 0 0 1 4.85-10.74c.83-1.26 1.56-2.24 2.08-2.91a6.45 6.45 0 0 1 .86-1 5.82 5.82 0 0 1-.69 1.11c-.47.7-1.15 1.71-1.94 3a36 36 0 0 0-4.65 10.66 16.67 16.67 0 0 0-.43 6.32 10.11 10.11 0 0 0 2.16 4.65c1.91 2.29 3.43 3.42 3.35 3.5Z" transform="translate(-19.6 -43.41)"/><path class="cls-7" d="M366.44 271.92a2.81 2.81 0 0 1-.48.23c-.32.13-.8.33-1.43.56a18.07 18.07 0 0 1-5.56 1.06 8.37 8.37 0 0 1-3.84-.88 7.16 7.16 0 0 1-3.13-3.29c-1.42-2.93-1.58-6.55-1.28-10.16a40.26 40.26 0 0 1 2.11-10.06 35.59 35.59 0 0 1 4-7.39c1.35-2 2.54-3.49 3.37-4.53.4-.47.72-.86 1-1.18s.35-.4.37-.39a2.45 2.45 0 0 1-.29.45l-.89 1.25c-.79 1.07-1.93 2.62-3.23 4.6a36.44 36.44 0 0 0-3.82 7.36 41.55 41.55 0 0 0-2.05 9.93c-.29 3.57-.13 7.12 1.2 9.91a6.8 6.8 0 0 0 2.88 3.12 8.14 8.14 0 0 0 3.65.89 19.68 19.68 0 0 0 5.49-.88l1.45-.47a2.12 2.12 0 0 1 .48-.13ZM361.37 235.05a25.09 25.09 0 0 1-2.21 1.8 42.85 42.85 0 0 0-4.93 4.72 43.84 43.84 0 0 0-4.1 5.46 24.46 24.46 0 0 1-1.52 2.4 11 11 0 0 1 1.21-2.59 32.94 32.94 0 0 1 4-5.62 33.32 33.32 0 0 1 5.1-4.66 11.53 11.53 0 0 1 2.45-1.51Z" transform="translate(-19.6 -43.41)"/><path d="M362.17 235.05a45.6 45.6 0 0 0-13.59 30.4c0 1 .27 2.33 1.27 2.35a1.34 1.34 0 0 0 1.22-1.15 6.45 6.45 0 0 0-.15-1.8c-.38-4.81.67-10.49 2.34-15.58s5.74-9.93 8.91-14.22ZM369.26 228.7c-3.41 3.81-6.6 7.93-8.32 12.74s-1.8 10.4.81 14.79c.72 1.21 2.17 2.43 3.39 1.72a2.19 2.19 0 0 0 .7-2.59 10.9 10.9 0 0 0-1.54-2.46c-2.37-3.45-2.45-8.06-1.21-12.06s3.63-7.51 6-11M261.56 303.46a53.28 53.28 0 0 0 19.14 7.48c5.76.9 11.63-.11 17.39-1 15-2.42 30.29-4.61 45.39-6.44h-81.92" transform="translate(-19.6 -43.41)" class="cls-10"/><path class="cls-7" d="M316.06 348.21a2.67 2.67 0 0 1 .88-.25 9.24 9.24 0 0 1 2.47-.09 12.27 12.27 0 0 1 7.31 3.46 13.05 13.05 0 0 1 2.7 3.61 8.8 8.8 0 0 1 .91 3.58 9.26 9.26 0 0 1-.25 2.47 2.89 2.89 0 0 1-.31.85 19 19 0 0 0 .2-3.3 8.86 8.86 0 0 0-1-3.38 13.17 13.17 0 0 0-2.63-3.46 12.7 12.7 0 0 0-7-3.47 19.66 19.66 0 0 0-3.28-.02Z" transform="translate(-19.6 -43.41)"/><rect class="cls-8" x="194.62" y="304.8" width="115.82" height="22.41" rx="10.33"/><rect class="cls-8" x="343.12" y="240.98" width="17.79" height="139.28" rx="8.2" transform="rotate(33.53 414.28 256.407)"/><path class="cls-7" d="M261.86 325c.2 0 7 6.65 8.6 11.15s3.69 15.49 4.65 19.67c1.33 5.73 3.45 11.25 11.28 11.61l29.65.12a5.36 5.36 0 0 0 4.52-2.45l25.95-40.1h-8.11l-22.65 33.74h-25.68a5.79 5.79 0 0 1-4.63-2.2 4.24 4.24 0 0 1-.78-1.56c-.58-2.32-2.61-14.34-5.07-19.56a96.23 96.23 0 0 0-5.94-10.42Z" transform="translate(-19.6 -43.41)"/><path class="cls-8" d="M288.89 363.15a1.83 1.83 0 1 1-1.82-1.82 1.82 1.82 0 0 1 1.82 1.82ZM317.57 363.15a1.83 1.83 0 1 1-1.82-1.82 1.83 1.83 0 0 1 1.82 1.82Z" transform="translate(-19.6 -43.41)"/><rect class="cls-7" x="233.01" y="276.12" width="101.74" height="5.51" rx="2.54"/><path class="cls-8" d="M294.88 319.52h-1l-2.9.06-10.84.13c-4.63 0-10.2.09-16.49.07h-4.86c-1.64 0-3.44-.33-4.87.52a1.85 1.85 0 0 0-.9 2 2.48 2.48 0 0 0 1.59 1.75 12.44 12.44 0 0 0 5.33.71h19.66l50.71.08 15.37.08 4.18.05h1.08a1.7 1.7 0 0 1 .37 0H349.86l-4.18.05-15.37.08-50.71.08H260a12.5 12.5 0 0 1-5.57-.76 2.94 2.94 0 0 1-1.86-2.1c0-.24-.06-.47-.05-.73a2.42 2.42 0 0 1 .2-.71 2.55 2.55 0 0 1 1-1.06 5.27 5.27 0 0 1 2.6-.64c.88 0 1.7.06 2.53.07l4.85.07H294.64Z" transform="translate(-19.6 -43.41)"/><path class="cls-8" d="M273.85 350a4.91 4.91 0 0 1-.34-1.05c-.21-.79-.46-1.76-.75-2.9a87.07 87.07 0 0 0-2.76-9.48 34.06 34.06 0 0 0-2.3-4.88 28.35 28.35 0 0 0-2.57-3.58c-1.65-1.91-2.87-2.9-2.8-3a5.63 5.63 0 0 1 .89.66 18.35 18.35 0 0 1 2.18 2.08 24 24 0 0 1 2.71 3.57 31.2 31.2 0 0 1 2.38 4.95 66.72 66.72 0 0 1 2.63 9.57c.26 1.24.46 2.25.59 2.95a4.43 4.43 0 0 1 .14 1.11Z" transform="translate(-19.6 -43.41)"/><path class="cls-7" d="M251.27 327.21h6.45v81.29h-6.45z"/><path class="cls-7" d="m256.41 395.47 67.02 13.2v6.99l-67.02-10.1v-10.09z"/><circle class="cls-7" cx="317.49" cy="420.71" r="5.94"/><path class="cls-7" d="m254.68 395.47-54.24 13.24v7l54.24-10.78v-9.46z"/><circle class="cls-7" cx="206.38" cy="420.71" r="5.94"/><circle class="cls-7" cx="254.51" cy="420.71" r="5.94"/><path class="cls-7" d="M261.27 414.77h-13.46l.14-50.85h13.45l-.13 50.85z"/><path class="cls-8" d="M280.51 407.44a39.72 39.72 0 0 1-6.37.26 39.64 39.64 0 0 1-6.36-.26 39.64 39.64 0 0 1 6.36-.26 39.72 39.72 0 0 1 6.37.26ZM280.09 449.57a39.72 39.72 0 0 1-6.37.26 39.72 39.72 0 0 1-6.37-.26 39.72 39.72 0 0 1 6.37-.26 39.72 39.72 0 0 1 6.37.26Z" transform="translate(-19.6 -43.41)"/></g><g id="Table"><path class="cls-8" d="M28.44 246.12H347v13.93H28.44z"/><path class="cls-7" d="M115.53 289.73s0 .06-.1.15-.18.24-.33.42a6.57 6.57 0 0 1-1.6 1.28 9.11 9.11 0 0 1-3.08 1 21.69 21.69 0 0 1-4.29.18 40.79 40.79 0 0 1-5.17-.59 45.7 45.7 0 0 0-5.89-.7 36.38 36.38 0 0 0-13.24 2.57c-4.55 1.66-8.83 3.51-12.83 4.63a35.73 35.73 0 0 1-5.86 1.17 25.13 25.13 0 0 1-5.21 0 17.7 17.7 0 0 1-7.14-2.29 11 11 0 0 1-2.21-1.65s.06 0 .16.1l.42.31a14.73 14.73 0 0 0 1.71 1.11 18 18 0 0 0 7.09 2.14 24.73 24.73 0 0 0 5.15 0 35.56 35.56 0 0 0 5.8-1.18c4-1.14 8.25-3 12.82-4.62a36.27 36.27 0 0 1 13.39-2.56 45.34 45.34 0 0 1 5.92.74 43.22 43.22 0 0 0 5.13.64 22.14 22.14 0 0 0 4.24-.13 9.16 9.16 0 0 0 3-.95 7.93 7.93 0 0 0 2.12-1.77Z" transform="translate(-19.6 -43.41)"/><path class="cls-7" d="M80.68 289.94a6 6 0 0 1-1 .83 21.37 21.37 0 0 1-2.91 1.87 25.39 25.39 0 0 1-4.75 1.93 25.73 25.73 0 0 1-6.21 1 23.63 23.63 0 0 1-11.1-2.29 6.93 6.93 0 0 1-2.68-2.19 3.82 3.82 0 0 1-.44-.84c-.07-.2-.1-.31-.08-.32a8.43 8.43 0 0 0 .64 1.07 7.21 7.21 0 0 0 2.68 2 24.51 24.51 0 0 0 11 2.15 25.84 25.84 0 0 0 10.85-2.76 27.34 27.34 0 0 0 2.94-1.75 8.65 8.65 0 0 1 1.06-.7ZM155.43 298.77a5.16 5.16 0 0 1 .5.18 8.77 8.77 0 0 0 7-.48v.18A13.28 13.28 0 0 0 156 296a13.47 13.47 0 0 0-9 2.34 1.45 1.45 0 0 0-.7.9 1 1 0 0 0 .6.9 4.15 4.15 0 0 0 1.24.44l1.35.3c1.83.41 3.71.81 5.66 1.1a34 34 0 0 0 6 .41 23.08 23.08 0 0 0 3.09-.3c.51-.09 1-.19 1.54-.32a7.53 7.53 0 0 0 1.48-.48 4.89 4.89 0 0 0 1.93-1.4 2.17 2.17 0 0 0 .37-2.14 3.62 3.62 0 0 0-1.51-1.69 11.54 11.54 0 0 0-2.12-1 28.74 28.74 0 0 0-8.84-1.84 36.83 36.83 0 0 0-15.09 2.26 37.55 37.55 0 0 0-9.09 5c-1 .75-1.72 1.34-2.2 1.78l-.56.48c-.12.11-.19.16-.2.15l.18-.18.53-.51c.46-.45 1.2-1.07 2.16-1.84a36.22 36.22 0 0 1 9.09-5.11 36.66 36.66 0 0 1 15.22-2.44 29.11 29.11 0 0 1 9 1.84 12.56 12.56 0 0 1 2.18 1.07 4 4 0 0 1 1.67 1.88 2.56 2.56 0 0 1-.43 2.51 5.22 5.22 0 0 1-2.08 1.52 8 8 0 0 1-1.55.5c-.52.14-1 .24-1.57.33a23.66 23.66 0 0 1-3.14.3 33.76 33.76 0 0 1-6.08-.43c-2-.29-3.85-.7-5.68-1.11l-1.35-.31a4.78 4.78 0 0 1-1.34-.48 1.74 1.74 0 0 1-.56-.49 1.11 1.11 0 0 1-.2-.75 1.75 1.75 0 0 1 .84-1.15 13.69 13.69 0 0 1 9.22-2.34 13.42 13.42 0 0 1 7 2.81l.13.1-.15.08a8.64 8.64 0 0 1-5.69.79 6.28 6.28 0 0 1-1.92-.71ZM196.42 290.09a2 2 0 0 1 .32.71 5.35 5.35 0 0 1 .21 2.09 10.38 10.38 0 0 1-3.1 6.08 15.81 15.81 0 0 1-2.9 2.46 13.42 13.42 0 0 1-2.8 1.36 13 13 0 0 1-2 .5 3.27 3.27 0 0 1-.76.07c0-.07 1.07-.22 2.7-.84a13.87 13.87 0 0 0 2.69-1.39 16.33 16.33 0 0 0 2.81-2.43 10.52 10.52 0 0 0 3.11-5.84 7.29 7.29 0 0 0-.28-2.77ZM253.63 302.72s-.45-.58-1.46-1.42a10.37 10.37 0 0 0-5-2.24 11.09 11.09 0 0 0-3.79.1 15.83 15.83 0 0 1-4.44.41 8.84 8.84 0 0 1-4.43-2.17 15 15 0 0 0-4.45-2.63 16.3 16.3 0 0 0-9.88-.16 23.41 23.41 0 0 0-7.3 3.7 40.4 40.4 0 0 0-4.24 3.62l-1.07 1.07a3.42 3.42 0 0 1-.39.36 2.56 2.56 0 0 1 .33-.42c.23-.26.57-.64 1-1.12a35.71 35.71 0 0 1 4.18-3.73 23.37 23.37 0 0 1 7.37-3.83 16.5 16.5 0 0 1 10.11.14 15.07 15.07 0 0 1 4.55 2.7 8.6 8.6 0 0 0 4.24 2.11 15.93 15.93 0 0 0 4.35-.37 11.35 11.35 0 0 1 3.89-.06 10.2 10.2 0 0 1 5 2.41 7 7 0 0 1 1.43 1.53ZM304.7 289.66a3.54 3.54 0 0 1-.35.48c-.24.29-.57.76-1.08 1.29a29.67 29.67 0 0 1-4.65 4.13 37 37 0 0 1-8.07 4.47 31.77 31.77 0 0 1-5.21 1.66 26.79 26.79 0 0 1-5.82.75 28.68 28.68 0 0 1-11-2.29 36.86 36.86 0 0 1-8-4.56 31.53 31.53 0 0 1-4.61-4.16 15.85 15.85 0 0 1-1.09-1.3 3.2 3.2 0 0 1-.35-.47 3.7 3.7 0 0 1 .41.42c.26.28.61.73 1.14 1.24a33.63 33.63 0 0 0 4.67 4.05 37.05 37.05 0 0 0 8 4.44 28.63 28.63 0 0 0 10.9 2.24 26.92 26.92 0 0 0 5.74-.73 33.73 33.73 0 0 0 5.15-1.62 38.12 38.12 0 0 0 8-4.36 32 32 0 0 0 4.7-4c.53-.51.88-1 1.14-1.24a3.43 3.43 0 0 1 .38-.44Z" transform="translate(-19.6 -43.41)"/><path class="cls-7" d="M297.41 289.53a2.14 2.14 0 0 1-.28.22c-.18.13-.45.33-.82.56a33.06 33.06 0 0 1-3.19 1.8 34.06 34.06 0 0 1-5 2.05 22.14 22.14 0 0 1-6.58 1.13 27.14 27.14 0 0 1-11.68-3 26.27 26.27 0 0 1-3.16-1.86c-.36-.24-.62-.45-.81-.59s-.27-.22-.26-.23a10 10 0 0 1 1.15.69 32.22 32.22 0 0 0 3.2 1.74 28.16 28.16 0 0 0 11.56 2.81 23 23 0 0 0 6.47-1.08 36.05 36.05 0 0 0 5-2 42.72 42.72 0 0 0 3.23-1.69 9.76 9.76 0 0 1 1.17-.55ZM353.12 291a2.84 2.84 0 0 1-.64 0l-1.79-.07-1.3-.06h-5.3l-2.19.07-2.35.16c-1.64.08-3.35.31-5.17.48-3.6.46-7.5 1.1-11.47 2a108.19 108.19 0 0 0-10.75 3.07c-1.54.58-3.06 1.09-4.36 1.67l-1.93.8-1.7.8c-1.11.49-2 1-2.84 1.43l-1.15.6-.9.54-1.27.75a2.84 2.84 0 0 1-.48.24s.11-.11.37-.3l1.19-.79.86-.57 1.12-.63c.8-.45 1.7-1 2.79-1.48l1.69-.83 1.92-.83c1.3-.59 2.82-1.12 4.37-1.71a106.83 106.83 0 0 1 10.82-3.13c4-.9 8-1.53 11.6-2 1.84-.17 3.57-.38 5.22-.45l2.38-.14 2.21-.05h5.34l1.3.09 1.79.14a3.77 3.77 0 0 1 .62.2ZM259.35 302.44a14.54 14.54 0 0 0-1.75-2.08 16.3 16.3 0 0 0-6.42-3.59 34.2 34.2 0 0 0-5-1.1c-1.83-.29-3.79-.52-5.86-.88a48.85 48.85 0 0 1-6.32-1.59 42 42 0 0 0-6.78-1.64 28.21 28.21 0 0 0-13.22 1.83 48 48 0 0 0-5.38 2.41c-1.65.85-3.16 1.68-4.53 2.45-2.74 1.55-4.92 2.88-6.43 3.79l-1.73 1.06-.45.28-.16.08.14-.12.43-.3c.38-.27.95-.65 1.69-1.13 1.48-1 3.65-2.31 6.37-3.9 1.37-.79 2.88-1.64 4.52-2.5a49.38 49.38 0 0 1 5.4-2.46 28.35 28.35 0 0 1 13.4-1.88 41.44 41.44 0 0 1 6.84 1.66 50.58 50.58 0 0 0 6.32 1.61c2 .36 4 .6 5.84.91a34.09 34.09 0 0 1 5 1.16 16 16 0 0 1 6.45 3.74 8.06 8.06 0 0 1 1.63 2.19ZM187.6 289.73a3 3 0 0 1 0 .89 9.68 9.68 0 0 1-.62 2.35 13.49 13.49 0 0 1-4.89 6.27 33 33 0 0 1-7.26 3.34c-1 .32-1.77.55-2.32.7a4.33 4.33 0 0 1-.87.18 3.78 3.78 0 0 1 .83-.33l2.27-.81a37.54 37.54 0 0 0 7.13-3.41 14 14 0 0 0 4.85-6 18.07 18.07 0 0 0 .88-3.18ZM113.65 303.46a5.45 5.45 0 0 1 .77-.75c.52-.46 1.29-1.1 2.27-1.85a64.51 64.51 0 0 1 8.13-5.24c3.31-1.82 6.4-3.27 8.64-4.31 1.13-.51 2-.92 2.68-1.19a6.62 6.62 0 0 1 1-.39 5.27 5.27 0 0 1-.94.53l-2.62 1.31c-2.21 1.09-5.28 2.58-8.57 4.39a79.75 79.75 0 0 0-8.15 5.12c-1 .72-1.8 1.32-2.34 1.75a5.82 5.82 0 0 1-.87.63ZM128.66 290.3c0 .05-.74-.09-2.06 0a14.53 14.53 0 0 0-5.31 1.61 48.52 48.52 0 0 0-6.91 4.64 35.74 35.74 0 0 1-4.15 2.69 23 23 0 0 1-5 1.91 45.75 45.75 0 0 1-10.17 1.23c-3.15.09-6 0-8.35.12a42.47 42.47 0 0 0-5.59.55c-.65.12-1.15.22-1.49.3a2.92 2.92 0 0 1-.53.1 2 2 0 0 1 .51-.18c.33-.1.83-.22 1.49-.37a36.25 36.25 0 0 1 5.6-.67c2.38-.14 5.21-.1 8.35-.21a47.33 47.33 0 0 0 10.09-1.24 23.49 23.49 0 0 0 4.89-1.88 34.25 34.25 0 0 0 4.12-2.65 47 47 0 0 1 7-4.58 13.93 13.93 0 0 1 5.42-1.52 8.57 8.57 0 0 1 1.54 0Z" transform="translate(-19.6 -43.41)"/><path class="cls-8" d="M57.75 427h-4.52l-2.58-168.03h9.68L57.75 427z"/><path class="cls-7" d="M349.6 426.65h-4.53l2.27-167.2h9.68l-7.42 167.2z"/><path class="cls-7" d="M331.82 246.12h40.39v13.93h-40.39z"/></g><g id="Plants"><g id="Plants-2" data-name="Plants"><path class="cls-9" d="m81.11 222.23 3.67 24.05h21.26l4.93-23.7-29.86-.35z"/><path class="cls-4" d="M127.6 281.05c0 .07-5.45.13-12.17.13s-12.16-.06-12.16-.13 5.44-.12 12.16-.12 12.17.07 12.17.12ZM127.68 279.87c0 .07-5.48.13-12.25.13s-12.25-.06-12.25-.13 5.49-.12 12.25-.12 12.25.05 12.25.12ZM127.64 278.53c0 .07-5.48.13-12.25.13s-12.25-.06-12.25-.13 5.49-.12 12.25-.12 12.25.06 12.25.12ZM106.82 288.32a19.12 19.12 0 0 1-.65-3 19.58 19.58 0 0 1-.41-3.07 18.8 18.8 0 0 1 .65 3 18.25 18.25 0 0 1 .41 3.07ZM108.27 288.06a24.61 24.61 0 0 1-.27-2.95 23.7 23.7 0 0 1-.14-3 14 14 0 0 1 .39 2.95 15.36 15.36 0 0 1 .02 3ZM110.9 288.06a15.84 15.84 0 0 1-.55-3 14.4 14.4 0 0 1-.16-3.07 26.81 26.81 0 0 1 .41 3 27.56 27.56 0 0 1 .3 3.07ZM112.75 288.19a25.16 25.16 0 0 1-.2-6.17 79.25 79.25 0 0 1 .2 6.17ZM116 288.06a35.72 35.72 0 0 1-.2-5.85 35.72 35.72 0 0 1 .2 5.85ZM118.42 288.19a18.69 18.69 0 0 1-.1-3 19.07 19.07 0 0 1 .15-3 18.69 18.69 0 0 1 .1 3 17.74 17.74 0 0 1-.15 3ZM120.67 287.87a19.66 19.66 0 0 1 .18-3.16 20.34 20.34 0 0 1 .43-3.14 22 22 0 0 1-.19 3.16 21.16 21.16 0 0 1-.42 3.14ZM123.56 287.55a10.5 10.5 0 0 1 .36-2.68 10.09 10.09 0 0 1 .79-2.6c.06 0-.24 1.2-.55 2.65a24.9 24.9 0 0 1-.6 2.63Z" transform="translate(-19.6 -43.41)"/><path class="cls-9" d="M98.28 260.88v4.5a1.77 1.77 0 0 0 1.77 1.77h30.79a1.77 1.77 0 0 0 1.77-1.77v-4.5Z" transform="translate(-19.6 -43.41)"/><path d="m81.34 223.74.26 1.43 28.41 2.03.72-3.46H81.34z" style="opacity:.4"/><path class="cls-8" d="M109.45 260.86c-4.53-2.62-7-8.72-7.13-13.71s1.9-10.21 6-13.07a13.69 13.69 0 0 1 14.88-.08 15.48 15.48 0 0 1 6.8 13.41 17.84 17.84 0 0 1-7.3 13.4" transform="translate(-19.6 -43.41)"/><path class="cls-7" d="M116.67 261.35a5.93 5.93 0 0 1-.09-1.15c0-.81 0-1.86-.09-3.11-.06-2.63-.17-6.26-.34-10.27s-.39-7.64-.56-10.26c-.07-1.25-.14-2.3-.18-3.11a6 6 0 0 1 0-1.15 6.07 6.07 0 0 1 .18 1.13c.09.74.2 1.79.32 3.11.24 2.62.5 6.25.68 10.26s.23 7.65.22 10.29v3.11a6.65 6.65 0 0 1-.14 1.15ZM103.66 246a3.32 3.32 0 0 1-1.61.08c-.88-.08-1.59-.23-1.58-.35a3.32 3.32 0 0 1 1.61-.08c.92.1 1.59.25 1.58.35ZM103.91 241.54c0 .1-.67-.07-1.39-.39s-1.27-.66-1.22-.77.67.06 1.39.38 1.31.67 1.22.78ZM106.21 238.21c-.06.1-.76-.23-1.48-.84s-1.19-1.22-1.1-1.3.66.39 1.37 1 1.28 1.04 1.21 1.14ZM108.53 235.07c-.11.05-.44-.48-.75-1.17s-.47-1.29-.36-1.34.44.48.75 1.17.47 1.27.36 1.34ZM112.17 232.84c-.11 0-.47-.5-.71-1.28s-.26-1.43-.14-1.45.32.58.55 1.33.41 1.36.3 1.4ZM118.24 230.34c.11 0 0 .51-.15 1.06s-.44 1-.55.92-.05-.51.15-1.06.44-.96.55-.92ZM122.74 232.27c.08.08-.21.48-.64.88s-.86.66-.94.58.21-.49.65-.89.85-.66.93-.57ZM126.71 234.83c.06.09-.29.45-.79.79s-1 .53-1 .43.29-.45.79-.79.93-.53 1-.43ZM129.52 238.64c0 .11-.51.45-1.24.76s-1.36.48-1.41.37.51-.45 1.24-.76 1.36-.47 1.41-.37ZM130.63 242.81c0 .11-.55.28-1.26.37s-1.3.06-1.32-.06.55-.28 1.26-.37 1.3-.06 1.32.06ZM131.2 247.93c0 .11-.64-.05-1.34-.35s-1.22-.64-1.17-.75.64.06 1.34.36 1.22.63 1.17.74ZM130.7 252.33a2.67 2.67 0 0 1-1.6-.6c-.79-.52-1.26-1.14-1.18-1.22s.66.38 1.42.86 1.4.84 1.36.96ZM128.41 256.33c-.07.09-.68-.27-1.26-.89s-.89-1.26-.8-1.32.55.43 1.11 1 1.02 1.12.95 1.21ZM106.67 256.8c0 .1-.58.54-1.42 1a3.76 3.76 0 0 1-1.62.6c0-.1.59-.54 1.42-1s1.57-.71 1.62-.6ZM104.69 253.18c0 .1-.47.44-1.14.75s-1.27.47-1.32.36.46-.44 1.14-.75 1.27-.47 1.32-.36ZM103.23 250c0 .12-.62.3-1.41.41s-1.44.11-1.46 0 .61-.3 1.4-.41 1.45-.14 1.47 0ZM108 248.2c0 .11-.57.4-1.39.49s-1.48-.05-1.47-.16.65-.17 1.42-.26 1.44-.18 1.44-.07ZM112 244.25c0 .11-.45.35-1.11.42s-1.18-.08-1.17-.2.52-.16 1.13-.23 1.15-.11 1.15.01ZM112.75 241.08c0 .11-.57 0-1.18-.19s-1.08-.47-1-.58.57 0 1.18.18 1.04.51 1 .59ZM114.21 237.87c-.08.08-.45-.16-.7-.61s-.29-.88-.18-.91.31.3.54.7.42.74.34.82ZM112.45 251c0 .11-.43.32-1 .46a3.58 3.58 0 0 1-.86.13l-.08-.25h.27c.02 0 0 .12-.17.21l-.08-.24a4 4 0 0 1 .82-.29c.57-.11 1.07-.14 1.1-.02ZM113.27 256.62c0 .11-.54.44-1.3.73s-1.41.46-1.46.35.54-.44 1.3-.74 1.42-.45 1.46-.34ZM108.78 254.12c0 .11-.35.34-.87.52s-1 .23-1 .12.35-.35.86-.52.97-.24 1.01-.12ZM109.12 242.68c0 .11-.7 0-1.48-.23s-1.35-.65-1.3-.76.68.09 1.44.36 1.37.51 1.34.63ZM120 241.44c.07.09-.31.46-.85.81s-1 .56-1.08.46.31-.46.85-.81 1.01-.56 1.08-.46ZM120.58 247.08c0 .11-.37.29-.89.4s-1 .1-1 0 .38-.3.89-.4.98-.08 1 0ZM121.27 253.43c0 .1-.63-.06-1.29-.37s-1.15-.64-1.11-.74.63.05 1.29.36 1.16.64 1.11.75ZM119.82 259.6c-.09.08-.47-.23-.84-.68s-.6-.88-.51-.95.47.23.84.68.6.88.51.95ZM119.52 237.28c.07.09-.18.4-.6.61s-.82.23-.85.12.28-.3.66-.49.72-.33.79-.24ZM124.85 243c0 .11-.46.38-1.13.47s-1.22 0-1.22-.14.53-.19 1.16-.28 1.15-.19 1.19-.05ZM123.79 237.86c0 .11-.44.46-1.14.68s-1.3.22-1.31.11.52-.3 1.18-.52 1.21-.37 1.27-.27ZM126 250.89a3.24 3.24 0 0 1-1.85 0 3.2 3.2 0 0 1-1.73-.65 5.91 5.91 0 0 1 1.81.23 5.67 5.67 0 0 1 1.77.42ZM124 258.31c-.07.09-.69-.27-1.3-.89s-1-1.24-.89-1.31.59.41 1.19 1 1.1 1.11 1 1.2Z" transform="translate(-19.6 -43.41)"/><path class="cls-7" d="M115.32 231.82a19.14 19.14 0 0 0-3.71 2.94A18.09 18.09 0 0 0 107 245a22.6 22.6 0 0 0 .28 6.27 48.19 48.19 0 0 0 1.17 5c.41 1.42.78 2.55 1 3.34a7.08 7.08 0 0 1 .36 1.23 7.56 7.56 0 0 1-.51-1.17c-.3-.78-.72-1.9-1.16-3.31a41.92 41.92 0 0 1-1.28-5 23 23 0 0 1-.31-6.39 17.82 17.82 0 0 1 4.83-10.39 13.09 13.09 0 0 1 2.78-2.16 7.57 7.57 0 0 1 .84-.45 1.31 1.31 0 0 1 .32-.15Z" transform="translate(-19.6 -43.41)"/><path class="cls-7" d="M121.11 261.14c-.1-.05 1-1.66 1.9-4.56a25.8 25.8 0 0 0 1.14-11.7 22.05 22.05 0 0 0-1.81-6.25 14.6 14.6 0 0 0-3.07-4.28 11.09 11.09 0 0 0-3-1.91c-.78-.33-1.25-.4-1.25-.44a1.52 1.52 0 0 1 .35 0 5.7 5.7 0 0 1 1 .26 10.33 10.33 0 0 1 3.15 1.83 14.52 14.52 0 0 1 3.24 4.35 21.72 21.72 0 0 1 1.87 6.35 24.75 24.75 0 0 1-1.28 11.86c-.24.73-.54 1.36-.77 1.93s-.5 1-.71 1.4a9.76 9.76 0 0 1-.76 1.16Z" transform="translate(-19.6 -43.41)"/><path class="cls-9" d="M393.66 403.88c-7.46 2.61-17.18.28-23.56-4.38s-11-11.32-15-18.09c-1.73-2.89-3.43-5.9-4-9.22s.26-7.07 2.83-9.24c4-3.37 10.15-1.66 14.7.93a50.69 50.69 0 0 1 25 40M385.65 421.72c-4.47 5.91-12.16 8.54-19.56 8.88s-14.72-1.7-21.64-4.36c-2.51-1-5.26-2.28-6.12-4.83a6.16 6.16 0 0 1 1.31-5.7 12.91 12.91 0 0 1 5-3.4 34.12 34.12 0 0 1 21.78-1.18c7.16 1.86 13.42 6 19.23 10.59M393.77 372c-6.17.13-10.84-5.28-13.64-10.78a39.93 39.93 0 0 1-3.67-24.93c.56-3.15 1.75-6.55 4.58-8.06s6.59-.53 9 1.66 3.72 5.33 4.68 8.44c3.31 10.72 2.6 23-1 33.67M414 406.08c-10.52-17.91-12.27-39.81-6.06-59.63 1-3.21 2.91-6.89 6.27-7.1 3.73-.24 6.06 3.91 7.09 7.5 3.61 12.58 2.84 25.95 2 39-.49 8.05-3.25 14.93-9.34 20.22M425 413.44a43 43 0 0 1 25.53-27.07c2.79-1.05 6.34-1.65 8.43.49s1.41 5.6.1 8.22c-2.12 4.23-5.56 7.62-9 10.88-3.12 3-6.36 6-10.3 7.67s-11.18 2.16-14.78-.19" transform="translate(-19.6 -43.41)"/><path class="cls-7" d="m359.75 367.45.18.16.57.44 2.21 1.65 1.6 1.18c.57.44 1.17 1 1.83 1.49 1.3 1.09 2.84 2.26 4.39 3.73l2.48 2.26c.86.79 1.68 1.67 2.58 2.56 1.81 1.74 3.56 3.77 5.45 5.87a116.28 116.28 0 0 1 19.22 31.1c1 2.63 2.07 5.11 2.82 7.51.39 1.19.82 2.33 1.14 3.45s.61 2.19.9 3.22c.63 2 1 3.95 1.38 5.6.18.82.37 1.59.52 2.3s.23 1.37.34 2c.2 1.15.37 2.05.49 2.71 0 .29.1.52.13.7a1 1 0 0 0 .07.24 1.08 1.08 0 0 0 0-.24c0-.19-.06-.42-.1-.71-.09-.67-.23-1.58-.39-2.73l-.3-2c-.13-.72-.31-1.49-.48-2.32-.37-1.66-.7-3.57-1.31-5.63-.28-1-.57-2.12-.88-3.24s-.73-2.28-1.11-3.48c-.73-2.41-1.76-4.9-2.78-7.54a125 125 0 0 0-8.38-16.4 123.16 123.16 0 0 0-10.93-14.83c-1.9-2.1-3.67-4.13-5.5-5.86-.9-.88-1.74-1.77-2.61-2.55l-2.51-2.24c-1.57-1.46-3.13-2.62-4.45-3.69-.67-.52-1.28-1-1.86-1.46l-1.63-1.15-2.27-1.55-.6-.4q-.19-.16-.21-.15Z" transform="translate(-19.6 -43.41)"/><path class="cls-7" d="M345.82 417.07a3.27 3.27 0 0 0 .72-.12c.47-.08 1.16-.26 2-.41a57.44 57.44 0 0 1 7.62-.93 55.59 55.59 0 0 1 45.12 18.77 58.51 58.51 0 0 1 4.71 6.06c.52.74.88 1.36 1.15 1.75a5.59 5.59 0 0 0 .42.6 3.06 3.06 0 0 0-.34-.65c-.24-.41-.57-1-1.07-1.8a51.72 51.72 0 0 0-4.6-6.19 54.7 54.7 0 0 0-45.41-18.89 50.34 50.34 0 0 0-7.64 1.09c-.89.18-1.57.39-2 .51a5.09 5.09 0 0 0-.68.21ZM384.67 335.32a1.35 1.35 0 0 0 0 .28c.05.21.1.47.17.81.17.73.4 1.77.69 3.08.61 2.67 1.53 6.53 2.69 11.3 2.32 9.53 5.69 22.65 9.2 37.19 1.74 7.28 3.32 14.23 4.68 20.57s2.47 12.07 3.32 16.9c.45 2.4.79 4.6 1.12 6.52s.58 3.57.78 4.93.37 2.37.49 3.12c0 .33.1.6.14.81a1 1 0 0 0 .06.27 1.47 1.47 0 0 0 0-.28c0-.21-.06-.48-.09-.82-.1-.75-.23-1.8-.4-3.13s-.39-3-.7-4.95-.61-4.12-1.05-6.53c-.8-4.84-1.9-10.58-3.21-16.93s-2.91-13.31-4.65-20.59c-3.51-14.55-6.93-27.66-9.34-37.17-1.19-4.73-2.16-8.56-2.84-11.26-.33-1.3-.6-2.32-.78-3.06-.09-.32-.16-.59-.22-.79a1.1 1.1 0 0 0-.06-.27ZM408.83 439.66a.66.66 0 0 0 .06-.22l.15-.64c.13-.61.3-1.44.52-2.49.44-2.17 1-5.31 1.71-9.21 1.35-7.79 3-18.61 3.93-30.64.48-6 .74-11.76.86-17s0-9.94-.12-13.89c-.05-2-.18-3.76-.27-5.33s-.19-2.92-.29-4-.18-1.91-.23-2.53c0-.27-.06-.48-.08-.66a.74.74 0 0 0 0-.22.72.72 0 0 0 0 .22v.67c0 .62.08 1.47.14 2.54s.15 2.45.21 4 .16 3.35.19 5.32c.11 4 .12 8.65 0 13.87s-.42 11-.89 17c-1 12-2.53 22.83-3.79 30.62-.63 3.9-1.16 7.06-1.55 9.23-.18 1.06-.32 1.9-.43 2.51 0 .26-.07.48-.1.66a.53.53 0 0 0-.02.19ZM408.05 441.94a3.33 3.33 0 0 0 .27-.62l.7-1.8.49-1.31c.21-.46.43-1 .68-1.51s.49-1.12.77-1.74.62-1.24 1-1.9L413 431l1.28-2.2c.84-1.55 1.93-3.08 3-4.75a114.77 114.77 0 0 1 7.92-10.13 123.86 123.86 0 0 1 9.1-9.1c1.51-1.27 2.89-2.55 4.29-3.62l2-1.58 1.89-1.4c1.2-.9 2.32-1.66 3.31-2.32s1.83-1.24 2.55-1.68l1.63-1a2.88 2.88 0 0 0 .55-.39 3.39 3.39 0 0 0-.6.31l-1.68.95c-.74.41-1.61 1-2.61 1.61s-2.14 1.38-3.35 2.27l-1.92 1.37-2 1.57c-1.41 1.06-2.81 2.33-4.34 3.6a120.53 120.53 0 0 0-9.16 9.11 108.75 108.75 0 0 0-7.93 10.2c-1.05 1.69-2.13 3.24-3 4.8l-1.26 2.23-1 2.11c-.32.68-.67 1.31-.93 1.93l-.74 1.76-.64 1.54c-.16.48-.32.92-.46 1.32-.25.76-.45 1.37-.6 1.84a3.32 3.32 0 0 0-.25.59ZM363.65 388.21c0 .08 1.28.08 3.33.19a59.31 59.31 0 0 1 15.68 3c1.94.65 3.13 1.11 3.16 1a3.49 3.49 0 0 0-.82-.4c-.52-.25-1.29-.57-2.26-.94a47.6 47.6 0 0 0-15.78-3c-1 0-1.87 0-2.45.05a3.48 3.48 0 0 0-.86.1Z" transform="translate(-19.6 -43.41)"/><path class="cls-7" d="M355.72 427a30.25 30.25 0 0 1 4.33-6.53 29.92 29.92 0 0 1 6.19-4.8 7.44 7.44 0 0 0-2.14.94 19.26 19.26 0 0 0-4.42 3.52 18.78 18.78 0 0 0-3.18 4.67 6.85 6.85 0 0 0-.78 2.2ZM382.78 349.86c-.1.1 1.84 2 4 4.63s3.61 4.87 3.74 4.8a29.61 29.61 0 0 0-7.69-9.43ZM389.13 338.88a18.92 18.92 0 0 0-.95 4.15 17.85 17.85 0 0 0-.47 4.24 18.92 18.92 0 0 0 1-4.15 17.85 17.85 0 0 0 .42-4.24ZM408.81 373.33a53.37 53.37 0 0 0 3.08 6.48 54.38 54.38 0 0 0 3.52 6.25 50.15 50.15 0 0 0-3.08-6.48 49.23 49.23 0 0 0-3.52-6.25ZM420.53 361.63a28.76 28.76 0 0 0-2.61 4.69 29.59 29.59 0 0 0-2.17 4.91 58.57 58.57 0 0 0 4.78-9.6ZM437.74 401.62c0 .15 2.12-.26 4.73-.44s4.73-.08 4.74-.23a19.18 19.18 0 0 0-9.47.67ZM426 437l-5.86 30.8a4.32 4.32 0 0 1-4.24 3.51h-17.3a4.31 4.31 0 0 1-4.26-3.61l-5.1-30.7Z" transform="translate(-19.6 -43.41)"/><path class="cls-8" d="M404.48 403.58h-33.09l-1.76-10.01h36.75l-1.9 10.01z"/><path class="cls-4" d="m404.48 403.58-.7 3.65H371.9l-.51-3.65h33.09z"/></g></g><g id="Clock"><circle class="cls-9" cx="103.62" cy="83.48" r="40.07" transform="rotate(-45 41.418 85.434)"/><circle class="cls-4" cx="103.47" cy="83.27" r="37.83" transform="rotate(-56.57 53.336 79.781)"/><path class="cls-7" d="M65.72 80.79v3.74c0 .48.09 1 .14 1.59L66 88c0 .67.24 1.35.36 2.09a36.08 36.08 0 0 0 3.52 10.29 37.82 37.82 0 0 0 8.87 11.28l1.57 1.34c.55.41 1.13.79 1.7 1.2s1.13.84 1.76 1.17l1.89 1.07 1 .53 1 .45 2.07.91c.7.28 1.44.48 2.17.73a18.67 18.67 0 0 0 2.24.67 35.63 35.63 0 0 0 4.71.86c.8.08 1.61.21 2.44.25h3.75l1.26-.11c.84-.09 1.7-.13 2.55-.25a41 41 0 0 0 10.13-3c.82-.37 1.61-.83 2.43-1.24.4-.22.82-.4 1.21-.66l1.15-.75a42.23 42.23 0 0 0 4.5-3.34 43.92 43.92 0 0 0 4-4.1l.93-1.1.84-1.18.83-1.2a9.21 9.21 0 0 0 .79-1.23l1.44-2.56 1.2-2.71A40.42 40.42 0 0 0 141 85.74a40.47 40.47 0 0 0-1.16-12c-.28-1-.56-1.9-.83-2.84l-1.1-2.73a9.44 9.44 0 0 0-.62-1.33l-.67-1.29-.68-1.28-.78-1.21a43.16 43.16 0 0 0-3.39-4.59 41 41 0 0 0-4-3.9l-1-.9c-.34-.3-.74-.54-1.11-.81-.75-.51-1.48-1.07-2.24-1.55a41.27 41.27 0 0 0-4.75-2.47 39.73 39.73 0 0 0-4.91-1.8c-.83-.22-1.67-.38-2.5-.57l-1.24-.28c-.41-.08-.83-.1-1.24-.16l-2.48-.29c-.82-.07-1.64 0-2.45-.07A34.24 34.24 0 0 0 99 46a19.49 19.49 0 0 0-2.31.36c-.76.16-1.52.26-2.25.45l-2.16.63-1.07.31-1 .41-2 .8c-.67.26-1.28.64-1.9.94s-1.25.63-1.84 1L82.76 52a37.61 37.61 0 0 0-10.32 10 35.68 35.68 0 0 0-4.84 9.74 19.23 19.23 0 0 0-.63 2c-.15.65-.29 1.26-.41 1.82s-.26 1.08-.35 1.56-.11.92-.16 1.31c-.1.77-.18 1.37-.24 1.79s-.09.6-.09.6v-.61c0-.41.1-1 .18-1.79 0-.4.09-.84.14-1.32s.21-1 .32-1.57.26-1.18.4-1.83a19.92 19.92 0 0 1 .6-2 36.09 36.09 0 0 1 4.8-9.83 37.76 37.76 0 0 1 10.33-10.26l1.72-1.12c.6-.34 1.23-.65 1.85-1s1.24-.7 1.92-1l2-.82 1-.41 1.13-.26 2.19-.64c.74-.2 1.51-.31 2.27-.46a18.12 18.12 0 0 1 2.34-.38 35 35 0 0 1 4.83-.25c.82 0 1.65 0 2.48.06l2.51.29c.42.05.84.08 1.26.16l1.26.27c.83.2 1.69.35 2.53.58a40.62 40.62 0 0 1 5 1.81 40.11 40.11 0 0 1 4.82 2.5c.77.48 1.51 1 2.27 1.56.37.28.78.52 1.13.82l1.06.91a42.06 42.06 0 0 1 4.08 3.94 43 43 0 0 1 3.44 4.65l.8 1.23.68 1.3.68 1.31a9.11 9.11 0 0 1 .63 1.34l1.11 2.77c.28 1 .57 1.91.85 2.88a40.55 40.55 0 0 1 1.17 12.12 40.29 40.29 0 0 1-2.75 11.87c-.4.92-.81 1.83-1.21 2.74s-1 1.74-1.47 2.6a9.13 9.13 0 0 1-.8 1.25l-.84 1.21-.85 1.2-1 1.11a43.84 43.84 0 0 1-4 4.15 42 42 0 0 1-4.56 3.38l-1.17.76c-.39.26-.82.44-1.22.66-.83.42-1.63.88-2.47 1.26a42.2 42.2 0 0 1-10.26 3c-.86.11-1.73.16-2.58.24l-1.28.11h-3.8c-.83 0-1.65-.18-2.47-.26a35.09 35.09 0 0 1-4.76-.88 21.08 21.08 0 0 1-2.26-.68c-.74-.26-1.49-.46-2.2-.75l-2.08-.93-1-.46-1-.54-1.91-1.08c-.63-.34-1.19-.81-1.77-1.2s-1.16-.8-1.71-1.22l-1.56-1.33a37.78 37.78 0 0 1-8.87-11.43 35.84 35.84 0 0 1-3.47-10.38c-.11-.75-.31-1.44-.34-2.11s-.1-1.28-.14-1.86-.11-1.11-.12-1.6 0-.93 0-1.33c0-.78 0-1.38.05-1.8a5.92 5.92 0 0 1 .09-.68Z" transform="translate(-19.6 -43.41)"/><path class="cls-7" d="M103.37 51.65a10.29 10.29 0 0 1 .25 3.18 10.24 10.24 0 0 1-.25 3.18 10.82 10.82 0 0 1-.24-3.18 10.88 10.88 0 0 1 .24-3.18ZM120.61 56.76a10.75 10.75 0 0 1-2 2.39 10.75 10.75 0 0 1-2.39 2 10 10 0 0 1 2-2.39 10 10 0 0 1 2.39-2ZM130.69 67.77a13.75 13.75 0 0 1-2.61 1.74 13.33 13.33 0 0 1-2.74 1.49 8.42 8.42 0 0 1 2.49-1.93 8.18 8.18 0 0 1 2.86-1.3ZM136.59 84.11a19.94 19.94 0 0 1-4.33.24 19.94 19.94 0 0 1-4.33-.24 18.85 18.85 0 0 1 4.33-.25 18.85 18.85 0 0 1 4.33.25ZM76.5 83.53a16.82 16.82 0 0 1-4.09.25 16.82 16.82 0 0 1-4.09-.25 17.8 17.8 0 0 1 4.09-.24 17.8 17.8 0 0 1 4.09.24ZM80.75 95.69a17.29 17.29 0 0 1-3.09 2.81 17.65 17.65 0 0 1-3.4 2.42 18.4 18.4 0 0 1 3.09-2.8 18.41 18.41 0 0 1 3.4-2.43ZM91.24 105.1a29.11 29.11 0 0 1-2.11 3.65 28.42 28.42 0 0 1-2.23 3.57 13.55 13.55 0 0 1 1.81-3.82 13.69 13.69 0 0 1 2.53-3.4ZM103.37 117.24a20 20 0 0 1-.24-4.34 19.94 19.94 0 0 1 .24-4.33 18.85 18.85 0 0 1 .25 4.33 18.9 18.9 0 0 1-.25 4.34ZM122.05 111.46a18.75 18.75 0 0 1-6.48-5.65 40.12 40.12 0 0 1 3.23 2.83 39.15 39.15 0 0 1 3.25 2.82ZM130.82 102a14.63 14.63 0 0 1-2.82-2.5 15.7 15.7 0 0 1-2.53-2.87 14.63 14.63 0 0 1 2.87 2.52 15.34 15.34 0 0 1 2.48 2.85ZM80.36 71.88a12 12 0 0 1-2.54-2.19 11.48 11.48 0 0 1-2.18-2.53 11.38 11.38 0 0 1 2.53 2.19 11.79 11.79 0 0 1 2.19 2.53ZM91.17 60.48a11 11 0 0 1-2.48-2.13 11.48 11.48 0 0 1-2.15-2.48A11 11 0 0 1 89 58a11.17 11.17 0 0 1 2.17 2.48ZM103.47 63.36a7.39 7.39 0 0 1 .1 1.36c0 1 .05 2.21.08 3.69 0 3.12.08 7.43.08 12.19v3.09l-.37-.19c-3.68-1.86-6.92-3.53-9.23-4.74l-2.71-1.45a5.28 5.28 0 0 1-1-.58 5.12 5.12 0 0 1 1 .41l2.77 1.32c2.35 1.13 5.62 2.73 9.31 4.58l-.37.23V80.6c0-4.76 0-9.07.08-12.19 0-1.48.06-2.72.08-3.69a6.74 6.74 0 0 1 .18-1.36Z" transform="translate(-19.6 -43.41)"/></g><g id="Device"><path class="cls-2" d="m157.66 246.39 18.34 40.5a6 6 0 0 0 4.9 3.06l84.48-.11a3.59 3.59 0 0 0-3.48-3.16l-32.06-.7-16.44-39.38a3.38 3.38 0 0 0-3.1-2.09l-51.16-.39a1.6 1.6 0 0 0-1.48 2.27Z" transform="translate(-19.6 -43.41)"/><path class="cls-7" d="M157.66 246.39a1.17 1.17 0 0 1-.15-.47 1.62 1.62 0 0 1 .45-1.36 1.6 1.6 0 0 1 1-.48h4.57l21.06.08 14.79.08 8.32.05h2.17a4.05 4.05 0 0 1 2.23.48 3.65 3.65 0 0 1 1.54 1.75l.87 2.09c4.71 11.27 10 23.81 15.56 37.26l-.22-.15 17.33.37 9 .2 4.58.1h1.16a3.86 3.86 0 0 1 3.11 1.77 4 4 0 0 1 .59 1.62v.29h-84.96a5 5 0 0 1-1.28-.24 6 6 0 0 1-3.71-3.2q-1-2.19-1.92-4.27c-5-11.13-9-20.12-11.83-26.36-1.37-3.1-2.45-5.51-3.18-7.17-.36-.81-.63-1.43-.82-1.87s-.26-.64-.26-.64.11.21.31.62l.86 1.85 3.28 7.13 12 26.29 1.94 4.26a5.57 5.57 0 0 0 3.49 3 6.94 6.94 0 0 0 2.43.23h7.87l22.93-.06 52.61-.09-.26.29a3.53 3.53 0 0 0-.5-1.4 3.3 3.3 0 0 0-1.65-1.32 3.17 3.17 0 0 0-1.05-.21h-1.15l-4.58-.11-9-.2-17.32-.38h-.17l-.06-.15c-5.59-13.45-10.81-26-15.5-37.28l-.87-2.1a3.24 3.24 0 0 0-1.35-1.55 3.69 3.69 0 0 0-2-.43h-2.17l-8.31-.07-14.79-.15-21.06-.23-3.26-.05h-1.29a1.56 1.56 0 0 0-.93.43 1.6 1.6 0 0 0-.47 1.29 2.7 2.7 0 0 0 .02.46Z" transform="translate(-19.6 -43.41)"/><path class="cls-8" d="M228.24 290.3a1.84 1.84 0 0 1-.24-.44c-.17-.35-.37-.79-.61-1.31l-2.15-4.85c-1.78-4.11-4.21-9.8-6.82-16.12s-4.91-12.06-6.51-16.25c-.79-2.09-1.43-3.79-1.84-5-.18-.55-.33-1-.46-1.37a1.71 1.71 0 0 1-.13-.49 1.73 1.73 0 0 1 .23.45c.15.36.33.8.56 1.33l2 4.92c1.73 4.21 4.06 9.9 6.65 16.18s4.94 12 6.67 16.18c.82 2 1.49 3.68 2 4.91l.52 1.35a1.47 1.47 0 0 1 .13.51Z" transform="translate(-19.6 -43.41)"/><path class="cls-12" d="M195.11 266a2.62 2.62 0 1 1-2.61-2.62 2.61 2.61 0 0 1 2.61 2.62Z" transform="translate(-19.6 -43.41)"/></g><g id="Speech_Bubble" data-name="Speech Bubble"><path class="cls-4" d="m314.22 203.33-6.71-11.83a31.76 31.76 0 1 0-7.6 8.44Z" transform="translate(-19.6 -43.41)"/><path class="cls-7" d="m314.22 203.33-14.35-3.25a.11.11 0 0 1-.09-.15.08.08 0 0 1 0-.05l.18.18a31.68 31.68 0 0 1-15.2 6.42 28.52 28.52 0 0 1-5 .26c-.86 0-1.74-.07-2.63-.15l-2.68-.4a32 32 0 0 1-19.82-12.71 31.58 31.58 0 0 1-5.36-12.26 32.24 32.24 0 0 1 .37-14.11 31.24 31.24 0 0 1 6.8-13 31.89 31.89 0 0 1 12.22-8.73 32.36 32.36 0 0 1 14.22-2.18 31.34 31.34 0 0 1 13.06 3.8 32.15 32.15 0 0 1 15 18.53 34.14 34.14 0 0 1 1.38 10.31 31.47 31.47 0 0 1-4.75 15.71v-.12l6.61 11.89-6.82-11.77a.12.12 0 0 1 0-.13 31.51 31.51 0 0 0 4.6-15.59 34.23 34.23 0 0 0-1.4-10.18 31.86 31.86 0 0 0-14.89-18.23 30.9 30.9 0 0 0-12.86-3.78 31.92 31.92 0 0 0-14 2.16 31.33 31.33 0 0 0-12 8.59 30.82 30.82 0 0 0-6.69 12.83 31.85 31.85 0 0 0-.38 13.89 31.22 31.22 0 0 0 5.26 12.08 31.6 31.6 0 0 0 19.51 12.59l2.64.41c.88.07 1.75.1 2.6.15a28.86 28.86 0 0 0 5-.23 31.45 31.45 0 0 0 15.09-6.27.15.15 0 0 1 .19 0 .15.15 0 0 1 0 .16l-.08-.21Z" transform="translate(-19.6 -43.41)"/><path class="cls-7" d="M273.31 176.2v3h-1.54v-2.81c0-.86-.38-1.25-1-1.25s-1.17.44-1.17 1.39v2.67H268v-2.81c0-.86-.36-1.25-1-1.25s-1.16.44-1.16 1.39v2.67h-1.54v-5.32h1.47v.61a2.16 2.16 0 0 1 1.67-.69 2 2 0 0 1 1.75.87 2.42 2.42 0 0 1 1.92-.87 2.06 2.06 0 0 1 2.2 2.4ZM283.69 176.2v3h-1.54v-2.81c0-.86-.39-1.25-1-1.25s-1.18.44-1.18 1.39v2.67h-1.54v-2.81c0-.86-.37-1.25-1-1.25s-1.17.44-1.17 1.39v2.67h-1.56v-5.32h1.48v.61a2.15 2.15 0 0 1 1.67-.69 2 2 0 0 1 1.75.87 2.38 2.38 0 0 1 1.91-.87 2.06 2.06 0 0 1 2.18 2.4ZM294.07 176.2v3h-1.55v-2.81c0-.86-.38-1.25-1-1.25s-1.18.44-1.18 1.39v2.67h-1.54v-2.81c0-.86-.37-1.25-1-1.25s-1.17.44-1.17 1.39v2.67h-1.54v-5.32h1.47v.61a2.18 2.18 0 0 1 1.67-.69 2 2 0 0 1 1.75.87 2.42 2.42 0 0 1 1.92-.87 2.06 2.06 0 0 1 2.17 2.4ZM295.08 178.35a1 1 0 0 1 1.92 0 1 1 0 1 1-1.92 0ZM297.67 178.35a1 1 0 0 1 1.92 0 1 1 0 1 1-1.92 0ZM300.26 178.35a1 1 0 0 1 1.92 0 1 1 0 1 1-1.92 0Z" transform="translate(-19.6 -43.41)"/></g><path class="cls-7" d="M471 470.41c0 .15-99.18.26-221.49.26S28 470.56 28 470.41s99.16-.26 221.51-.26 221.49.12 221.49.26Z" transform="translate(-19.6 -43.41)" id="Floor"/></svg>